<svg version="1" xmlns="http://www.w3.org/2000/svg" width="1365.333" height="1365.333" viewBox="0 0 1024.000000 1024.000000"><path d="M65 1.5C31.4 8.3 6.3 34.5 1.1 68 .2 73.6 0 163.8.2 426.5l.3 351.1 26.5-5.7c14.6-3.2 37.5-7.9 50.9-10.5 17.9-3.6 24.5-5.2 24.8-6.4.3-.8 7.5-19 16-40.4 34-85.5 64.4-153.6 107.3-240.1 34.1-68.8 46.7-92.4 50.9-95.2 4.1-2.8 7.5-2.9 11.8-.6 5.1 2.9 76.3 93.3 99.2 126.1 1.9 2.8 2.6 3.1 3.6 2 .7-.7 6.8-11 13.5-22.8 23.8-41.5 54.2-91.7 83.8-138.3 15-23.6 16.9-25.7 23.2-25.7 6.5 0 8.1 1.9 25.7 29.7 29.7 46.9 60.3 97.5 85.2 141.1 5.2 8.9 9.7 16.4 10.1 16.7.4.2 9-10.7 19.1-24.3 37.9-50.9 78.5-101.8 83.2-104.5 4.3-2.3 7.7-2.2 11.8.6 4.2 2.8 16.8 26.4 50.9 95.2 42.9 86.5 73.3 154.6 107.3 240.1 8.5 21.4 15.7 39.6 16 40.4.3 1.2 6.9 2.8 24.8 6.4 13.4 2.6 36.3 7.3 50.9 10.5l26.5 5.7.3-351.1c.2-262.7 0-352.9-.9-358.5-5.2-33.9-30.6-60-64.7-66.6C947.6-.6 75.1-.5 65 1.5z"/><path d="M493.2 406.7C457.5 464.1 414 537.3 414 540c0 .6 5.3 8.8 11.9 18.3 16.1 23.4 60.1 90.1 74.2 112.4 6.3 10.1 11.6 18.3 11.9 18.3.3 0 5.6-8.2 11.9-18.3 14.1-22.3 58.1-89 74.2-112.4 6.6-9.5 11.9-17.7 11.9-18.3 0-1.6-34.1-60-54.3-93-20.7-33.9-43-69-43.7-69-.5 0-8.9 12.9-18.8 28.7zM284.5 437.7c-5.6 9.8-44.7 87.6-56.1 111.3-30.5 64-55.3 120-79.5 179.4l-8.9 21.8 2.9-.5c11.5-2.3 108.6-15.3 128.8-17.3l7.2-.6 10.7-23.2c14.1-30.5 53.8-110.9 69.7-141.4 7.2-13.7 12.4-24.8 12.1-25.5-3.2-5.3-76.3-100.2-82.9-107.5-1-1.1-1.8-.4-4 3.5zM731 439.7c-18.5 23.1-75.8 97.7-78.4 102-.3.7 4.9 11.8 12.1 25.5 15.9 30.5 55.6 110.9 69.7 141.4l10.7 23.2 7.2.6c20.2 2 117.3 15 128.8 17.3l2.9.5-8.9-21.8c-30.4-74.9-65.6-152.5-103.1-227.5-15.5-31-33.6-65.9-34.9-67.2-.4-.4-3.2 2.3-6.1 6z"/><path d="M378.3 605.3c-22.1 42.6-42.7 84.2-60.5 121.7-8.2 17.3-16 32.6-17.3 33.9-2.2 2.2-4.2 2.6-27.2 5.2-61.1 6.9-126.6 16.4-173.3 25-28.6 5.3-90.9 18.3-98.3 20.5-1.7.5-1.8 4.2-1.5 73.2.4 78.5.1 74.3 5.8 89.4 2.9 7.8 10.5 19.1 17.6 26.2 10.4 10.5 22 17 37.9 21.4 5.6 1.6 38.6 1.7 450.5 1.7s444.9-.1 450.5-1.7c15.9-4.4 27.5-10.9 37.9-21.4 7.1-7.1 14.7-18.4 17.6-26.2 5.7-15.2 5.5-11.7 5.5-90.1v-72.5l-12.5-2.8c-25.6-5.7-92.3-18.8-116-22.7-47.7-7.9-94-14.3-144.3-20-23-2.6-25-3-27.2-5.2-1.3-1.3-9.1-16.6-17.3-33.9-16.5-34.8-47.8-97.6-65.5-131.3l-11.4-21.8-14 20.3c-32.8 47.4-61.2 90.7-83.7 127.3-6.5 10.4-12.6 19.8-13.8 20.7-2.2 2-7.9 2.4-10.8.8-1.1-.6-7.8-10.6-15.1-22.3-18.3-29.5-39.4-62.1-57.7-89.2-16.6-24.5-38-55.5-39-56.7-.4-.4-8 13.4-16.9 30.5z"/></svg>