<svg width="76" height="69" xmlns="http://www.w3.org/2000/svg"><g id="Page-1" fill="none" fill-rule="evenodd" opacity=".03"><g id="01.-Exports-/-Symbols" transform="translate(-248 -259)" fill="#000"><g id="Icons" transform="translate(50 251)"><path d="M201.289 75.726L198 72.394l23.171-23.474c1.831-1.856 2.773-4.37 2.611-7.015-.142-2.3-1.225-4.44-2.834-6.07l-22.928-23.23 3.289-3.331a4.255 4.255 0 0 1 6.072 0l20.114 20.379c3.385 3.427 5.249 7.988 5.249 12.837 0 4.85-1.864 9.408-5.249 12.837l-20.134 20.399a4.255 4.255 0 0 1-6.072 0zm69.404 0a4.255 4.255 0 0 1-6.072 0l-20.116-20.379c-6.987-7.078-6.987-18.596 0-25.674L264.64 9.274a4.256 4.256 0 0 1 6.073 0l3.287 3.33-23.17 23.476c-3.5 3.545-3.5 9.314 0 12.86l23.151 23.454-3.288 3.332z" id="Icon-Toxins"/></g></g></g></svg>