<svg width="71" height="84" xmlns="http://www.w3.org/2000/svg"><g id="Page-1" fill="none" fill-rule="evenodd" opacity=".03"><g id="01.-Exports-/-Symbols" transform="translate(-359 -251)" fill="#000"><g id="Icons" transform="translate(50 251)"><path d="M344.51 10.829l-23.372 23.436c-4.26 4.272-4.26 11.222 0 15.494 0 0 16.32 16.364 23.352 23.412l23.371-23.435c4.26-4.272 4.26-11.223 0-15.495L344.51 10.83M344.49 84c-1.855 0-1.855 0-7.308-5.467l-22.37-22.431c-7.75-7.77-7.75-20.411 0-28.18l26.535-26.608A4.468 4.468 0 0 1 344.51 0c1.854 0 1.854 0 7.308 5.467l22.37 22.431c7.75 7.77 7.75 20.413 0 28.182l-26.536 26.606A4.462 4.462 0 0 1 344.49 84" id="Icon-Nutrition"/></g></g></g></svg>