<svg width="76" height="78" xmlns="http://www.w3.org/2000/svg"><g id="Page-1" fill="none" fill-rule="evenodd" opacity=".03"><g id="01.-Exports-/-Symbols" transform="translate(-146 -255)" fill="#000"><g id="Icons" transform="translate(50 251)"><path d="M134 16.977c-10.792 17.608-19.295 34.956-26.28 53.628 8.761-2.25 17.704-3.423 26.28-3.423 8.577 0 17.52 1.173 26.28 3.423-6.983-18.67-15.487-36.02-26.28-53.628m-33.513 65.021a4.47 4.47 0 0 1-3.177-1.326 4.535 4.535 0 0 1-1.065-4.66c8.507-24.788 19.306-47.013 33.984-69.942A4.482 4.482 0 0 1 134 4a4.48 4.48 0 0 1 3.771 2.07c14.68 22.93 25.479 45.157 33.983 69.94a4.535 4.535 0 0 1-1.064 4.662 4.457 4.457 0 0 1-4.63 1.081c-10.514-3.626-21.6-5.543-32.06-5.543-10.459 0-21.545 1.917-32.06 5.543a4.447 4.447 0 0 1-1.453.244" id="Icon-Mindset"/></g></g></g></svg>