<svg width="69" height="78" xmlns="http://www.w3.org/2000/svg"><g id="Page-1" fill="none" fill-rule="evenodd" opacity=".03"><g id="01.-Exports-/-Symbols" transform="translate(-50 -255)" fill="#000"><g id="Icons" transform="translate(50 251)"><path d="M64.394 82L40.92 58.62c-3.546-3.53-9.313-3.53-12.86 0L4.605 81.979l-3.331-3.317a4.32 4.32 0 0 1 0-6.127l20.379-20.297c7.077-7.051 18.596-7.051 25.673 0l20.4 20.317a4.32 4.32 0 0 1 0 6.127L64.394 82zm0-42.95L40.92 15.67c-3.546-3.53-9.313-3.53-12.86 0L4.605 39.03l-3.331-3.318a4.32 4.32 0 0 1 0-6.126L21.653 9.288c7.077-7.05 18.596-7.05 25.673 0l20.4 20.318a4.32 4.32 0 0 1 0 6.126l-3.332 3.318z" id="Icon-Core"/></g></g></g></svg>