<svg width="61" height="60" xmlns="http://www.w3.org/2000/svg"><g id="2.0-Request-an-Appointment" fill="none" fill-rule="evenodd" transform="translate(-579 -1464)"><g id="Group-4" transform="translate(310 1225)" fill-rule="nonzero"><g id="Group" transform="translate(125 184.017)"><g id="Basic" transform="translate(0 .239)"><g id="Icon-Phone" transform="translate(145 54.744)"><path d="M51.577 8.071C46.66 3.155 39.76.438 32.637.651a.977.977 0 0 0-.948 1.002c.016.54.472.982 1.002.948 6.575-.17 12.967 2.312 17.507 6.849 4.537 4.537 7.035 10.919 6.85 17.507a.977.977 0 0 0 .947 1.003h.028c.526 0 .96-.42.975-.948.199-7.122-2.506-14.026-7.421-18.94zm.564 19.889a.976.976 0 0 1-.946-1.005c.153-5.076-1.72-9.948-5.136-13.367-3.342-3.342-8.22-5.226-13.38-5.135h-.015a.975.975 0 0 1-.015-1.95c5.723-.067 11.076 1.993 14.79 5.706 3.795 3.797 5.876 9.193 5.707 14.805a.976.976 0 0 1-.974.946h-.03zM32.664 14.305a.975.975 0 1 1 0-1.95c2.481 0 7.163.518 10.637 3.992 3.474 3.476 3.993 8.157 3.993 10.637a.975.975 0 1 1-1.95 0c0-2.178-.445-6.279-3.422-9.257-2.977-2.977-7.079-3.422-9.258-3.422z" id="Shape" stroke="#58BFBA" fill="#58BFBA"/><path d="M41.317 36.252L52.43 47.367a.974.974 0 0 1 0 1.379l-2.733 2.735a.973.973 0 0 1-1.379 0 .974.974 0 0 1 0-1.379l2.044-2.045-9.736-9.736-4.867 4.867c-3.11 3.11-9.252 3.242-15.967-3.473-6.218-6.217-6.566-11.944-4.115-15.227L7.984 16.79a.976.976 0 0 1 1.379-1.379l8.334 8.336a.974.974 0 0 1 0 1.38c-2.422 2.422-2.286 7.446 3.475 13.208 5.762 5.762 10.786 5.895 13.21 3.473l5.555-5.557a1.004 1.004 0 0 1 1.38 0zm-2.778 8.336l8.336 8.336a.975.975 0 0 1 0 1.38c-3.236 3.235-6.671 4.858-10.26 4.858-1.766 0-3.568-.392-5.402-1.179-.27-.107-7.223-2.955-16.978-12.71-9.754-9.754-12.602-16.708-12.72-17-2.822-5.636-1.763-10.187 3.69-15.64l5.557-5.557a1.004 1.004 0 0 1 1.379 0l11.116 11.115a.976.976 0 0 1 0 1.379l-2.78 2.779a.976.976 0 0 1-1.38-1.38l2.09-2.089-9.736-9.734-4.867 4.867c-4.809 4.807-5.73 8.583-3.29 13.462.06.141 2.884 6.981 12.32 16.419 9.474 9.474 16.277 12.26 16.344 12.287 4.586 1.964 8.783 1.118 12.834-2.582l-7.632-7.632a.976.976 0 0 1 1.379-1.379z" id="Shape" stroke="#5D7689" fill="#5D7689"/></g></g></g></g></g></svg>