<svg width="67" height="50" xmlns="http://www.w3.org/2000/svg"><g id="Page-1" fill="none" fill-rule="evenodd"><g id="01.-Exports-/-Symbols" transform="translate(-347 -1406)" fill-rule="nonzero"><g id="Info-Icons" transform="translate(50 1339)"><g id="IconGradhat" transform="translate(297 67)"><path d="M65.899 16.205L33.954.233a1.39 1.39 0 0 0-1.242 0L.768 16.205a1.389 1.389 0 0 0 0 2.484l10.575 5.288V34.59c0 6.555 9.66 11.69 21.99 11.69 12.332 0 21.991-5.135 21.991-11.69V23.977L65.9 18.69a1.389 1.389 0 0 0 0-2.485zm-18.62 24.427c-3.701 1.851-8.654 2.87-13.946 2.87-5.291 0-10.244-1.019-13.946-2.87-3.347-1.673-5.267-3.875-5.267-6.041v-9.225l18.592 9.296a1.388 1.388 0 0 0 1.242 0l18.592-9.296v9.225c0 2.166-1.92 4.368-5.266 6.041zm12.843-22.16l-4.725 2.363-22.064 11.032-28.838-14.42L33.333 3.028l28.84 14.42-2.051 1.024z" id="Shape" fill="#5D7689"/><path d="M58.52 22.154v10.153a4.334 4.334 0 0 0-2.928 4.097 4.334 4.334 0 0 0 2.465 3.908l-2.95 7.803A1.388 1.388 0 0 0 56.405 50h7.009a1.39 1.39 0 0 0 1.299-1.885l-2.95-7.802a4.334 4.334 0 0 0 2.464-3.909c0-1.9-1.228-3.516-2.93-4.097V20.762l-2.778 1.392zm-.103 25.062l1.493-3.948 1.493 3.948h-2.986zm3.033-10.812c0 .852-.691 1.544-1.54 1.544a1.544 1.544 0 0 1-.007-3.087h.013a1.544 1.544 0 0 1 1.534 1.543zM32.634 16.015L61.3 18.707v2.053l-2.78 1.4v-1.355l-26.145-1.83a1.478 1.478 0 0 1-1.37-1.603 1.494 1.494 0 0 1 1.629-1.357z" id="Shape-Copy" fill="#58BFBA"/></g></g></g></g></svg>