<?xml version="1.0" encoding="UTF-8"?>
<svg width="16px" height="13px" viewBox="0 0 16 13" version="1.1" xmlns="http://www.w3.org/2000/svg" xmlns:xlink="http://www.w3.org/1999/xlink">
    <!-- Generator: Sketch 49.3 (51167) - http://www.bohemiancoding.com/sketch -->
    <title>Shape</title>
    <desc>Created with Sketch.</desc>
    <defs></defs>
    <g id="ðŸ–¥--Desktop" stroke="none" stroke-width="1" fill="none" fill-rule="evenodd">
        <g id="1.1-Landing-Page-Copy" transform="translate(-850.000000, -2130.000000)" fill="#58BFBA" fill-rule="nonzero">
            <g id="Landing-Page" transform="translate(0.000000, -452.000000)">
                <g id="What-to-Expect" transform="translate(150.000000, 2025.000000)">
                    <g id="Group" transform="translate(0.000000, 352.000000)">
                        <g id="â†³-âš™ï¸-Elements-/-Icons-/-Checkmark" transform="translate(700.000000, 205.000000)">
                            <path d="M4.1107991,12.2119202 C4.42213043,12.5113206 4.8553157,12.6809809 5.3080415,12.6809809 C5.31243264,12.6809809 5.31704333,12.6809809 5.32187357,12.6809809 C5.77986874,12.6773881 6.21546913,12.5009414 6.52438533,12.1933574 L15.5694605,3.18719336 C16.1826823,2.57661611 16.1350385,1.62971241 15.4636342,1.07222884 C14.7920105,0.515144467 13.7504337,0.558058526 13.137212,1.16843617 L5.28762274,8.98398457 L2.8441768,6.63169532 C2.21931859,6.03049929 1.17686362,6.00375285 0.515998113,6.57121643 C-0.14530651,7.13887962 -0.174727101,8.08618253 0.449472449,8.68737856 L4.1107991,12.2119202 Z" id="Shape"></path>
                        </g>
                    </g>
                </g>
            </g>
        </g>
    </g>
</svg>