<svg width="70" height="50" xmlns="http://www.w3.org/2000/svg"><g id="Page-1" fill="none" fill-rule="evenodd"><g id="01.-Exports-/-Symbols" transform="translate(-495 -1406)" fill-rule="nonzero"><g id="Info-Icons" transform="translate(50 1339)"><g id="Icon-Award" transform="translate(445 67)"><path d="M45.385 26.386a1.128 1.128 0 0 0-.911-.77l-5.694-.827-2.547-5.16a1.13 1.13 0 0 0-2.025 0l-2.547 5.16-5.694.828a1.13 1.13 0 0 0-.626 1.926l4.12 4.017-.972 5.67a1.13 1.13 0 0 0 1.638 1.191l5.093-2.677 5.093 2.677a1.128 1.128 0 0 0 1.639-1.19l-.973-5.672 4.12-4.016c.308-.3.419-.749.286-1.157zm-6.408 3.97a1.13 1.13 0 0 0-.324 1l.686 4.002-3.593-1.89a1.13 1.13 0 0 0-1.051 0l-3.593 1.89.686-4.002a1.129 1.129 0 0 0-.325-1l-2.906-2.833 4.017-.583a1.13 1.13 0 0 0 .85-.618l1.797-3.64 1.797 3.64c.164.333.482.564.85.618l4.017.583-2.908 2.834z" id="Shape" fill="#58BFBA"/><path d="M16 19.74c4.605 0 8.928-2.868 10.55-7.45a1.13 1.13 0 0 0-.688-1.441 11.106 11.106 0 0 0-8.503.43 25.45 25.45 0 0 1 2.242-2.566 1.13 1.13 0 1 0-1.597-1.597 27.822 27.822 0 0 0-1.65 1.804C16.231 5.566 14.61 2.301 11.67.21a1.13 1.13 0 0 0-1.575.265 11.108 11.108 0 0 0-1.915 8.34 11.098 11.098 0 0 0 4.013 6.849c-.371.86-.695 1.735-.975 2.622a11.31 11.31 0 0 0-.776-1.445 11.109 11.109 0 0 0-7-4.923 1.13 1.13 0 0 0-1.348.855c-1.3 5.806 2.194 11.588 7.848 13.195a27.821 27.821 0 0 0 .148 3.587 11.412 11.412 0 0 0-.821-.666 11.109 11.109 0 0 0-8.31-2.044 1.13 1.13 0 0 0-.946 1.287 11.106 11.106 0 0 0 4.43 7.321 11.097 11.097 0 0 0 7.738 2.115 27.373 27.373 0 0 0 1.599 3.141c-3.494-1.12-7.47-.507-10.513 1.985a1.13 1.13 0 0 0-.158 1.59 11.108 11.108 0 0 0 7.542 4.042 11.077 11.077 0 0 0 7.55-1.99 27.794 27.794 0 0 0 4.131 3.344 1.129 1.129 0 0 0 1.245-1.885 25.538 25.538 0 0 1-3.976-3.248 25.185 25.185 0 0 1-5.912-9.313c5.362-2.067 8.345-7.952 6.704-13.565a1.13 1.13 0 0 0-1.4-.767 11.108 11.108 0 0 0-6.67 5.362c-.046.083-.087.168-.13.252.01-2.403.359-4.804 1.047-7.126.918.236 1.845.35 2.76.35zm-6.108 3.838a8.942 8.942 0 0 1-5.779-9.113 8.854 8.854 0 0 1 4.421 3.585 8.855 8.855 0 0 1 1.358 5.528zm-4.11 10.055a8.855 8.855 0 0 1-3.273-4.657l.143-.001a8.943 8.943 0 0 1 8.551 6.392 8.865 8.865 0 0 1-5.422-1.734zm5.093 12.445a8.855 8.855 0 0 1-5.189-2.34 8.942 8.942 0 0 1 10.738 1.07 8.859 8.859 0 0 1-5.549 1.27zm3.429-18.73a8.857 8.857 0 0 1 4.182-3.861 8.942 8.942 0 0 1-5.182 9.465 8.857 8.857 0 0 1 1-5.604zm3.985-14.013a8.855 8.855 0 0 1 5.65-.685 8.942 8.942 0 0 1-9.738 4.646 8.857 8.857 0 0 1 4.088-3.96zM10.407 8.44a8.854 8.854 0 0 1 .892-5.621 8.943 8.943 0 0 1 1.793 10.64 8.854 8.854 0 0 1-2.685-5.019zm48.166 29.188c2.364 0 4.658-.749 6.598-2.175a11.107 11.107 0 0 0 4.43-7.32 1.13 1.13 0 0 0-.945-1.288 11.163 11.163 0 0 0-9.132 2.718c.127-1.195.178-2.396.15-3.595a11.098 11.098 0 0 0 6.38-4.765 11.108 11.108 0 0 0 1.467-8.43 1.13 1.13 0 0 0-1.348-.855 11.107 11.107 0 0 0-7 4.923c-.295.466-.554.95-.775 1.445a27.453 27.453 0 0 0-.976-2.622c4.572-3.677 5.543-10.348 2.098-15.19A1.128 1.128 0 0 0 57.945.21a11.108 11.108 0 0 0-4.543 7.253 11.54 11.54 0 0 0-.147 1.452 27.747 27.747 0 0 0-1.644-1.798 1.13 1.13 0 0 0-1.597 1.597 25.446 25.446 0 0 1 2.242 2.565 11.105 11.105 0 0 0-8.503-.429 1.13 1.13 0 0 0-.688 1.442c1.622 4.582 5.945 7.45 10.55 7.45.915 0 1.842-.115 2.76-.35a25.488 25.488 0 0 1 1.047 7.136 11.147 11.147 0 0 0-6.799-5.625 1.13 1.13 0 0 0-1.4.767 11.107 11.107 0 0 0 .923 8.507 11.096 11.096 0 0 0 5.78 5.06 25.19 25.19 0 0 1-5.912 9.311 25.53 25.53 0 0 1-3.976 3.248 1.13 1.13 0 0 0 1.245 1.885 27.786 27.786 0 0 0 4.132-3.344 11.12 11.12 0 0 0 6.431 2.04 11.16 11.16 0 0 0 8.66-4.092 1.13 1.13 0 0 0-.157-1.59 11.11 11.11 0 0 0-8.192-2.475c-.796.08-1.57.244-2.315.481a27.363 27.363 0 0 0 1.592-3.132c.38.039.76.06 1.14.06zm6.93-23.162a8.856 8.856 0 0 1-1.357 5.528 8.855 8.855 0 0 1-4.421 3.585 8.942 8.942 0 0 1 5.778-9.113zm1.602 14.51a8.946 8.946 0 0 1-8.693 6.39 8.94 8.94 0 0 1 8.693-6.39zM45.675 12.65a8.854 8.854 0 0 1 5.65.686 8.855 8.855 0 0 1 4.09 3.96 8.942 8.942 0 0 1-9.74-4.646zm10.847.808a8.853 8.853 0 0 1-.892-5.621 8.855 8.855 0 0 1 2.685-5.02 8.943 8.943 0 0 1-1.793 10.641zm1.858 29.009a8.854 8.854 0 0 1 5.549 1.27 8.943 8.943 0 0 1-10.737 1.07 8.855 8.855 0 0 1 5.188-2.34zm-2.07-9.514a8.855 8.855 0 0 1-4.182-3.861 8.856 8.856 0 0 1-1-5.604 8.942 8.942 0 0 1 5.182 9.465z" id="Shape" fill="#5D7689"/></g></g></g></g></svg>