<svg width="66" height="66" xmlns="http://www.w3.org/2000/svg"><g id="2.0-High-Intent-/-Thank-You" fill="none" fill-rule="evenodd" transform="translate(-767 -911)"><g id="Group-4" transform="translate(0 667)"><g id="Group-2" transform="translate(410 157.184)"><g id="Page-1" transform="translate(357.5 86.62)"><g id="Icon-Phone" transform="translate(0 .042)"><path d="M45.912 63.477H18.763a2.595 2.595 0 0 1-2.595-2.59v-8.19h32.339v8.19a2.596 2.596 0 0 1-2.595 2.59zM18.763 3.117h27.149a2.595 2.595 0 0 1 2.595 2.588v1.721H16.168v-1.72a2.594 2.594 0 0 1 2.595-2.59zm-2.595 47.429h32.339V9.579H16.168v40.967zM45.912.958H18.763a4.757 4.757 0 0 0-4.754 4.747v55.182a4.757 4.757 0 0 0 4.754 4.749h27.149a4.757 4.757 0 0 0 4.752-4.749V5.705A4.756 4.756 0 0 0 45.912.958zM32.337 60.246a2.162 2.162 0 0 1-2.158-2.16 2.16 2.16 0 0 1 2.158-2.15 2.16 2.16 0 0 1 2.159 2.15c0 1.19-.969 2.16-2.159 2.16m0-6.47a4.316 4.316 0 0 0-4.31 4.31c0 2.38 1.93 4.318 4.31 4.318s4.31-1.937 4.31-4.317c0-2.373-1.93-4.31-4.31-4.31m-4.31-47.43a1.08 1.08 0 0 1 0-2.158h4.31a1.08 1.08 0 0 1 0 2.159h-4.31zm7.542 0a1.076 1.076 0 0 1-1.074-1.079c0-.594.48-1.08 1.074-1.08h1.08a1.08 1.08 0 0 1 0 2.159h-1.08z" id="Fill-1" fill="#56768B"/><path d="M56.486 8.338a9.153 9.153 0 0 1 2.7 6.525c0 2.463-.963 4.78-2.7 6.522a1.081 1.081 0 0 1-1.527 0 1.082 1.082 0 0 1 0-1.527 7.018 7.018 0 0 0 2.069-4.995 7.048 7.048 0 0 0-2.069-5.005c-.42-.42-.42-1.1 0-1.52a1.08 1.08 0 0 1 1.527 0zM9.715 8.037c.42.42.42 1.105 0 1.527a7.008 7.008 0 0 0-2.069 5 7.03 7.03 0 0 0 2.069 5 1.075 1.075 0 0 1-.763 1.837 1.08 1.08 0 0 1-.764-.315 9.177 9.177 0 0 1-2.7-6.522c0-2.468.963-4.785 2.7-6.527a1.08 1.08 0 0 1 1.527 0zm51.308-2.153c4.869 4.87 4.869 12.79 0 17.655a1.07 1.07 0 0 1-.762.315c-.275 0-.556-.105-.76-.315a1.066 1.066 0 0 1 0-1.522c4.027-4.031 4.027-10.585 0-14.612a1.066 1.066 0 0 1 0-1.52 1.075 1.075 0 0 1 1.522 0zM5.173 7.405c-4.027 4.032-4.027 10.586 0 14.612.425.42.425 1.1 0 1.521-.205.21-.486.316-.76.316a1.07 1.07 0 0 1-.762-.316c-4.868-4.868-4.868-12.784 0-17.654.42-.42 1.1-.42 1.521 0 .426.422.426 1.1 0 1.521z" id="Fill-13" fill="#27BBB7"/></g></g></g></g></g></svg>