<svg width="11" height="14" xmlns="http://www.w3.org/2000/svg"><g id="Page-1" fill="none" fill-rule="evenodd"><g id="01.-Exports-/-Symbols" transform="translate(-482 -453)" fill-rule="nonzero" fill="#7890A2"><path d="M8.375 10.066l2.01-2.975A4.38 4.38 0 0 0 11 4.858c0-1.31-.582-2.539-1.638-3.46C8.306.48 6.984-.017 5.5 0 4.058.018 2.623.53 1.6 1.44.577 2.353.009 3.556 0 4.829A4.415 4.415 0 0 0 .602 7.07l2.023 2.996 2.698 3.9a.49.49 0 0 0 .355 0l2.697-3.9zm-5.997-3.69A2.92 2.92 0 0 1 2 4.914c.011-1.721 1.559-3.14 3.45-3.165.945-.011 1.836.314 2.508.917C8.63 3.27 9 4.075 9 4.934c0 .508-.127.993-.378 1.441l-2.839 4.329a.335.335 0 0 1-.283.146.335.335 0 0 1-.283-.146L2.378 6.375zM5.5 4c-.69 0-1.25.628-1.25 1.293 0 .666.56 1.207 1.25 1.207s1.25-.541 1.25-1.207C6.75 4.628 6.19 4 5.5 4z" transform="translate(482 453)" id="Icon-Pin-Small"/></g></g></svg>