<svg width="21" height="20" xmlns="http://www.w3.org/2000/svg"><g id="🖥--Public" fill="none" fill-rule="evenodd"><g id="10.3-About-Us-/-Success-Stories" transform="translate(-791 -1368)" fill="#58BFBA"><g id="Framework" transform="translate(-22 -3302)"><g id="Body"><g id="Section-/-Patient-Stories" transform="translate(0 4451)"><g id="Option-2" transform="translate(332 28)"><g id="Pic" transform="translate(135)"><g id="Group" transform="translate(310 155)"><path d="M38.167 56c-.305 0-.603-.12-.826-.34a1.15 1.15 0 0 1-.277-1.196c2.213-6.355 5.023-12.054 8.841-17.933a1.17 1.17 0 0 1 1.962 0c3.82 5.88 6.63 11.578 8.842 17.933.146.419.038.882-.277 1.196a1.172 1.172 0 0 1-1.205.277c-2.735-.93-5.62-1.421-8.34-1.421-2.722 0-5.606.491-8.342 1.421a1.172 1.172 0 0 1-.378.063" id="Icon-Play" transform="rotate(90 46.886 46)"/></g></g></g></g></g></g></g></g></svg>