<svg width="75" height="50" xmlns="http://www.w3.org/2000/svg"><g id="Page-1" fill="none" fill-rule="evenodd"><g id="01.-Exports-/-Symbols" transform="translate(-188 -1405)" fill-rule="nonzero"><g id="Info-Icons" transform="translate(50 1339)"><g id="Icon-Megaphone" transform="translate(138 66)"><path d="M64.081 31.255c.655.219 1.008.926.789 1.581a1.249 1.249 0 0 1-1.58.79l-1.185-.395a1.249 1.249 0 0 1-.79-1.581 1.248 1.248 0 0 1 1.581-.79l1.185.395zm9.486 3.16a1.251 1.251 0 0 1-.788 2.374l-1.185-.394a1.251 1.251 0 0 1 .788-2.374l1.185.394zm-6.718.396a1.25 1.25 0 1 1 .79-2.371l1.185.395a1.249 1.249 0 1 1-.79 2.371l-1.185-.395zM68.75 23.75a1.249 1.249 0 1 1 0 2.5H67.5a1.249 1.249 0 1 1 0-2.5h1.25zm-6.25 2.5a1.249 1.249 0 1 1 0-2.5h1.25a1.249 1.249 0 1 1 0 2.5H62.5zm11.25-2.5a1.249 1.249 0 1 1 0 2.5H72.5a1.249 1.249 0 1 1 0-2.5h1.25zM66.035 8.17a1.249 1.249 0 0 1-.884-2.134l.884-.884a1.249 1.249 0 1 1 1.767 1.768l-.883.884a1.247 1.247 0 0 1-.884.366zm3.536-3.536a1.249 1.249 0 0 1-.883-2.134l.883-.884a1.249 1.249 0 1 1 1.768 1.768l-.884.884a1.247 1.247 0 0 1-.884.366zM62.5 11.705a1.249 1.249 0 0 1-.884-2.134l.884-.884a1.249 1.249 0 1 1 1.767 1.768l-.883.884a1.247 1.247 0 0 1-.884.366zm.79 4.67a1.25 1.25 0 1 1 .79 2.371l-1.185.395a1.245 1.245 0 0 1-1.58-.79 1.25 1.25 0 0 1 .79-1.581l1.185-.395zm3.954 1.25a1.251 1.251 0 0 1-.397-2.436l1.186-.395a1.25 1.25 0 1 1 .791 2.371l-1.185.395c-.13.044-.265.065-.395.065zm3.557-2.439a1.252 1.252 0 0 1 .791-1.581l1.186-.394a1.254 1.254 0 0 1 1.58.793 1.252 1.252 0 0 1-.792 1.581l-1.185.394a1.25 1.25 0 0 1-1.58-.793zm-.346 30.547l.884.883a1.249 1.249 0 1 1-1.768 1.768l-.883-.884a1.249 1.249 0 1 1 1.767-1.767zm-3.536-3.537l.883.884a1.249 1.249 0 1 1-1.767 1.767l-.884-.883a1.249 1.249 0 1 1 1.768-1.768zm-3.535-3.535l.883.884a1.249 1.249 0 1 1-1.767 1.767l-.884-.883a1.249 1.249 0 1 1 1.768-1.768z" id="Shape" fill="#58BFBA"/><path d="M52.043 0c-2.733 0-4.956 2.243-4.956 5v1.584L8.618 18.814C8.341 16.669 6.538 15 4.337 15 1.945 15 0 16.962 0 19.375v11.25C0 33.038 1.945 35 4.337 35c2.2 0 4.004-1.669 4.281-3.814l2.644.84a4.213 4.213 0 0 0-.895 1.54c-.717 2.229.498 4.631 2.71 5.354l14.144 4.622h.001c.43.14.865.208 1.294.208a4.227 4.227 0 0 0 4.012-2.943 4.237 4.237 0 0 0 .133-1.98l14.426 4.59V45c0 2.758 2.223 5 4.956 5C54.777 50 57 47.758 57 45V5c0-2.757-2.223-5-4.957-5zM30.17 40.039a1.734 1.734 0 0 1-2.185 1.126L13.84 36.542a1.755 1.755 0 0 1-1.117-2.205 1.735 1.735 0 0 1 2.185-1.125l14.147 4.623a1.756 1.756 0 0 1 1.115 2.204zM6.196 30.625A1.87 1.87 0 0 1 4.337 32.5a1.87 1.87 0 0 1-1.859-1.875v-11.25A1.87 1.87 0 0 1 4.337 17.5a1.87 1.87 0 0 1 1.859 1.875v11.25zm2.478-2.043v-7.165L47.087 9.205v31.591L8.674 28.582zM54.522 45c0 1.379-1.112 2.5-2.479 2.5-1.366 0-2.478-1.121-2.478-2.5V5c0-1.379 1.112-2.5 2.478-2.5 1.367 0 2.479 1.121 2.479 2.5v40z" id="Shape" fill="#5D7689"/></g></g></g></g></svg>