<svg width="62" height="62" xmlns="http://www.w3.org/2000/svg"><g id="2.0-Request-an-Appointment" fill="none" fill-rule="evenodd" transform="translate(-959 -1463)"><g id="Group-4" transform="translate(310 1225)" fill-rule="nonzero"><g id="Icon-Email" transform="translate(650 239)"><path d="M1 36.281h30c2.757 0 5-2.243 5-5v-30a1 1 0 0 0-1-1h-.006a4.995 4.995 0 0 0-3.559 1.475L1.478 31.712a4.994 4.994 0 0 0-1.473 3.473A.996.996 0 0 0 1 36.281zm1.892-3.155L32.85 3.17c.33-.33.722-.575 1.151-.723v28.834c0 1.654-1.346 3-3 3H2.168c.147-.43.392-.824.724-1.155zm55.634-11.4a5.041 5.041 0 0 1 0 7.121L28.57 58.803a5.016 5.016 0 0 1-3.56 1.473 5.019 5.019 0 0 1-3.56-1.473L2.62 39.974a.999.999 0 1 1 1.414-1.414l18.83 18.83a3.039 3.039 0 0 0 4.292 0l29.957-29.957a3.04 3.04 0 0 0 0-4.293L38.293 4.323a1 1 0 1 1 1.414-1.415l18.819 18.818zM53 26.281H39a1 1 0 1 1 0-2h14a1 1 0 1 1 0 2zm-29 13a1 1 0 1 1 2 0v14a1 1 0 1 1-2 0v-14z" id="Shape" stroke="#5D7689" fill="#5D7689"/><path d="M1.169 48.281a1 1 0 1 1 0-2h4a1 1 0 1 1 0 2h-4zm0 6a1 1 0 1 1 0-2h8a1 1 0 1 1 0 2h-8zm14 4a1 1 0 1 1 0 2h-14a1 1 0 1 1 0-2h14z" id="Shape" stroke="#58BFBA" fill="#58BFBA"/></g></g></g></svg>