<svg id="Layer_1" xmlns="http://www.w3.org/2000/svg" viewBox="0 0 11 14"><g id="Page-1"><g id="_x30_1.-Exports-_x2F_-Symbols" transform="translate(-482 -453)"><path d="M8.4 10.1l2-3c.4-.7.6-1.5.6-2.2 0-1.3-.6-2.5-1.6-3.5C8.3.5 7 0 5.5 0 4.1 0 2.6.5 1.6 1.4.6 2.4 0 3.6 0 4.8 0 5.6.2 6.4.6 7c0 0 .7 1 2 3l2.7 4h.4l2.7-3.9zm-6-3.7c-.3-.5-.4-1-.4-1.5 0-1.7 1.6-3.1 3.5-3.2.9 0 1.8.3 2.5.9.7.6 1 1.4 1 2.3 0 .5-.1 1-.4 1.4l-2.8 4.3c-.1.1-.2.1-.3.1-.1 0-.2 0-.3-.1L2.4 6.4zM5.5 4c-.7 0-1.3.6-1.3 1.3s.6 1.2 1.3 1.2c.7 0 1.2-.5 1.2-1.2S6.2 4 5.5 4z" fill="#fff" transform="translate(482 453)" id="Icon-Pin-Small"/></g></g></svg>