<svg id="Layer_1" xmlns="http://www.w3.org/2000/svg" viewBox="0 0 601 309"><path d="M297.1 141.9c6.4-10.2 13.2-20 20.2-29.8 6 10.9 11.7 21.9 17 33 .3.6.8 1 1.5 1 11.1 1.1 22.1 2.6 33.1 4.4 9.4 1.6 18.8 3.5 28.1 5.8.4-1.6.6-2.4 1-4.1.2-1-.4-1.9-1.4-2.2-8.3-1.9-16.6-3.6-25-5.1-9.1-23-19.7-45.5-31.7-67.1-.7-1.1-2.1-1.4-3.2-.7-.2.1-.3.2-.4.3-6.3 7.5-12.4 15.1-18.3 22.9-6.6-11.2-13.5-22.2-20.7-33-.8-1-2.3-1.2-3.3-.4-.2.1-.3.3-.4.4-7.2 10.8-14.1 21.8-20.7 33-5.9-7.8-12-15.5-18.3-22.9-.9-.9-2.3-1-3.2-.1-.1.1-.2.3-.3.4-12 21.7-22.6 44.1-31.7 67.1-8.4 1.5-16.7 3.2-25 5.1-1 .2-1.6 1.2-1.4 2.2.4 1.6.6 2.4 1 4.1 9.3-2.2 18.7-4.2 28.1-5.8 11-1.8 22-3.2 33.1-4.4.6-.1 1.2-.5 1.5-1 5.3-11.2 11-22.2 17-33 7 9.7 13.9 19.6 20.2 29.8.5.9 1.7 1.1 2.5.6.4-.1.6-.3.7-.5zm40.2-55.2c10.2 18.5 19.3 37.6 27.4 57.1-8.6-1.3-17.2-2.4-25.8-3.3-5.4-11.5-11.2-22.8-17.3-34 5.1-6.7 10.4-13.3 15.7-19.8zm-85 53.8c-8.6.9-17.2 2-25.8 3.3 8.1-19.5 17.2-38.6 27.4-57.1 5.4 6.5 10.7 13.1 15.8 19.8-6.2 11.2-11.9 22.5-17.4 34zm25-34.4c5.9-10 12-19.7 18.3-29.4 6.4 9.6 12.5 19.4 18.3 29.4-6.3 8.8-12.5 17.8-18.3 26.9-5.9-9.2-12-18.1-18.3-26.9zm-106 80.3c-5.4 0-9.6 2.2-12.3 6.3-2.3-4.1-6.7-6.6-11.4-6.3-5 0-8.9 1.9-11.5 5.9v-3c0-1-.8-1.9-1.9-1.9h-6.8v40.2h6.8c1 0 1.9-.8 1.9-1.9v-20.6c0-7.3 4-10.6 8.9-10.6 4.7 0 7.6 3.1 7.6 8.8v24.3h6.8c1 0 1.9-.8 1.9-1.9v-20.6c0-7.3 3.6-10.6 8.8-10.6 4.7 0 7.8 3.1 7.8 8.8v24.3h6.8c1 0 1.9-.8 1.9-1.9v-23c-.1-10.1-6.2-16.3-15.3-16.3zm55.3 35.4v3.9c0 1 .8 1.9 1.9 1.9h6.8v-40.2h-6.8c-1 0-1.9.8-1.9 1.9v3.8c-3.1-4.2-7.8-6.7-14.1-6.7-10.9 0-20 9.2-20 21.1 0 11.9 9.1 21.1 20 21.1 6.3 0 11-2.5 14.1-6.8zm-12.7-1.4c-7.1.1-12.9-5.6-13-12.7-.1-7.1 5.6-12.9 12.7-13s12.9 5.6 13 12.7v.2c.2 6.9-5.1 12.6-12 12.9-.2-.1-.5-.1-.7-.1zm58.4 7.2h9.1l-15-20.6 14.3-19.6h-9.2c-.6 0-1.2.3-1.5.8l-8.7 11.9-8.7-11.9c-.4-.5-.9-.8-1.5-.8H242l14.3 19.5-15.1 20.7h9.2c.6 0 1.2-.3 1.5-.8l9.5-13 9.4 13c.3.5.9.8 1.5.8zm18.7-58.7h-3.4v56.8c0 1 .8 1.9 1.9 1.9h3.4v-56.8c0-1-.9-1.9-1.9-1.9zm17 2.3c-2.1 0-3.9 1.7-3.9 3.9 0 2.1 1.7 3.9 3.9 3.9 2.1 0 3.9-1.7 3.9-3.9s-1.8-3.9-3.9-3.9zm.8 16.2h-3.4v38.3c0 1 .8 1.9 1.9 1.9h3.4v-38.3c0-1-.9-1.9-1.9-1.9zm47.4 0h-4.4c-.8 0-1.4.5-1.7 1.2l-13.6 33.5-13.6-33.5c-.3-.7-1-1.2-1.7-1.2h-4.4l16.5 40.2h6.4l16.5-40.2zm6.8 1.9v38.3h3.4c1 0 1.9-.8 1.9-1.9v-38.3h-3.4c-1 0-1.9.9-1.9 1.9zm2.7-10.4c2.1 0 3.9-1.7 3.9-3.9 0-2.1-1.7-3.9-3.9-3.9-2.1 0-3.9 1.7-3.9 3.9s1.8 3.9 3.9 3.9zm30.9 7.6c-5.7 0-10.4 2.2-13.5 7.2v-4.4c0-1-.8-1.9-1.9-1.9h-3.4v40.2h3.4c1 0 1.9-.8 1.9-1.9v-19.2c0-10.8 5.9-14.9 13-14.9 7 0 10.9 4.2 10.9 11.3v24.7h3.4c1 0 1.9-.8 1.9-1.9v-22.8c.1-10-5.9-16.4-15.7-16.4zm63.1.9h-3.4v7.9c-3.5-5.6-9.6-9-16.2-8.8-11.6.2-20.9 9.8-20.7 21.4.2 11.4 9.4 20.6 20.7 20.7 6.6.1 12.8-3.2 16.2-8.8v6.3c0 8.2-5.5 13.5-14.9 13.5-7.6 0-11.4-2.5-13.5-5.8-.5-.8-1.6-1.1-2.5-.6l-1.4.8c-.9.5-1.2 1.6-.7 2.5 0 0 0 .1.1.1 3.4 5.2 9.7 8.1 18.1 8.1 10.4 0 20.2-6.4 20.2-18.6v-36.7c-.1-1.1-.9-2-2-2zm-19.2 36c-8.8 0-15.9-7-16-15.8 0-8.8 7-15.9 15.8-16 8.8 0 15.9 7 16 15.8v.1c.1 8.7-6.8 15.8-15.4 15.9h-.4zm28.1-34.6h1.4v3.8h1.3v-3.8h1.4v-1.3h-4.1zm8.7-1.3l-1.3 2.1-1.4-2.1h-1.3v5.1h1.3v-2.9l1.3 1.9h.1l1.3-2v3h1.3v-5.1z" fill="#7890a2"/></svg>