<svg id="Layer_1" xmlns="http://www.w3.org/2000/svg" viewBox="0 0 505.8 730.9"><style>.st0{fill:#7890a2}</style><path class="st0" d="M213.2 683.8c1 0 1.9-.8 1.9-1.9V659c0-10-6.1-16.2-15.1-16.2-5.4 0-9.6 2.2-12.2 6.3-2.3-4.1-6.7-6.5-11.4-6.3-5 0-8.9 1.9-11.4 5.8v-2.9c0-1-.8-1.9-1.8-1.9h-6.8v40h6.8c1 0 1.9-.8 1.9-1.9v-20.6c0-7.3 4-10.6 8.9-10.6 4.7 0 7.5 3.1 7.5 8.7v24.2h6.8c1 0 1.9-.8 1.9-1.9v-20.5c0-7.3 3.6-10.6 8.7-10.6 4.7 0 7.8 3.1 7.8 8.7v24.2l6.5.3zm41.8-38.1v3.8c-3-4.2-7.8-6.7-14-6.7-10.9 0-19.9 9.1-19.9 21s9 21 19.9 21c6.2 0 11-2.6 14-6.8v4c0 1 .8 1.9 1.9 1.9h6.8v-40h-6.8c-1.1-.1-1.9.7-1.9 1.8 0-.1 0-.1 0 0zm-12.7 30.9c-7.1.1-12.9-5.6-12.9-12.6-.1-7.1 5.6-12.9 12.6-12.9 7.1-.1 12.9 5.6 12.9 12.6v.2c.2 6.8-5.1 12.5-11.9 12.8-.2-.1-.4-.1-.7-.1zm52.3-13.3l14.2-19.5h-9.1c-.6 0-1.2.3-1.5.8l-8.6 11.9-8.6-11.9c-.3-.5-.9-.8-1.5-.8h-9l14.2 19.4-15 20.5h9.1c.6 0 1.2-.3 1.5-.8l9.4-12.9 9.3 13c.3.5.9.8 1.5.8h9l-14.9-20.5zm26.3-36c0-1-.8-1.9-1.9-1.9h-3.4v56.5c0 1 .8 1.9 1.9 1.9h3.4v-56.5zm15.1 8c2.1 0 3.8-1.7 3.8-3.8s-1.7-3.8-3.8-3.8c-2.1 0-3.8 1.7-3.8 3.8 0 2.1 1.7 3.8 3.8 3.8zm-2.6 8.5v38.1c0 1 .8 1.9 1.9 1.9h3.4v-38.1c0-1-.8-1.9-1.9-1.9h-3.4zm44.4 1.1l-13.5 33.3-13.5-33.3c-.3-.7-1-1.2-1.7-1.2h-4.4l16.4 40h6.4l16.4-40h-4.4c-.7.1-1.4.5-1.7 1.2zm13 .8v38.1h3.4c1 0 1.9-.8 1.9-1.9v-38.1h-3.4c-1.1 0-1.9.8-1.9 1.9 0-.1 0 0 0 0zm2.6-18c-2.1 0-3.8 1.7-3.8 3.8s1.7 3.8 3.8 3.8c2.1 0 3.8-1.7 3.8-3.8 0-2.1-1.7-3.8-3.8-3.8zm30.8 15.1c-5.7 0-10.3 2.2-13.4 7.2v-4.4c0-1-.8-1.9-1.9-1.9h-3.4v40h3.4c1 0 1.9-.8 1.9-1.9v-19.1c0-10.7 5.9-14.9 13-14.9s10.9 4.2 10.9 11.3v24.6h3.4c1 0 1.9-.8 1.9-1.9v-22.7c-.2-9.9-6.1-16.3-15.8-16.3zm62.8 1h-3.4v7.8c-3.4-5.6-9.6-8.9-16.2-8.8-11.6.8-20.3 10.8-19.5 22.4.7 10.5 9 18.8 19.5 19.5 6.6.1 12.7-3.2 16.2-8.8v6.2c0 8.2-5.5 13.4-14.8 13.4-7.5 0-11.3-2.4-13.5-5.8-.5-.8-1.6-1.1-2.5-.6l-1.4.8c-.9.5-1.2 1.6-.7 2.5 0 0 0 .1.1.1 3.4 5.2 9.7 8.1 18 8.1 10.3 0 20.1-6.4 20.1-18.5v-36.5c-.1-1-.9-1.8-1.9-1.8zm-19.2 35.8c-8.7 0-15.9-7-15.9-15.7s7-15.9 15.7-15.9 15.9 7 15.9 15.7v.1c.1 8.6-6.8 15.7-15.4 15.8h-.3zm28-34.5h1.4v3.8h1.3v-3.8h1.4v-1.2h-4.1zm8.7-1.2l-1.4 2.1-1.3-2.1h-1.3v5h1.3V646l1.3 2h.1l1.3-2v2.9h1.3v-5zM15.4 682.2c6.2-.9 12.3-1.7 18.6-2.4 3.9-8.3 8-16.4 12.4-24.4-3.7-4.8-7.5-9.6-11.3-14.2-7.3 13.3-13.9 27-19.7 41z"/><path class="st0" d="M94 683.9c-.5 0-.9-.3-1.1-.8-3.9-8.1-7.9-16-12.2-23.8-5.1 7-10 14.1-14.5 21.4-.4.6-1.2.8-1.8.4-.2-.1-.3-.2-.4-.4-4.6-7.3-9.5-14.4-14.5-21.4-4.3 7.8-8.4 15.7-12.3 23.7-.2.4-.6.7-1 .8-8 .8-15.9 1.9-23.8 3.1-4.2.7-8.3 1.5-12.4 2.4V721c0 4.1 3.3 7.5 7.4 7.5h115.3c4.1 0 7.4-3.3 7.4-7.5v-31.7c-4.1-.9-8.2-1.7-12.4-2.4-7.8-1.1-15.7-2.2-23.7-3z"/><path class="st0" d="M51.9 655.1c4.6 6.3 9 12.8 13.2 19.3 4.2-6.6 8.6-13 13.2-19.3-4.2-7.2-8.6-14.2-13.2-21.1-4.6 6.9-9 13.9-13.2 21.1zm31.9.3c4.4 8 8.5 16.1 12.4 24.4 6.2.7 12.4 1.5 18.6 2.4-5.8-14-12.4-27.7-19.7-41-3.9 4.7-7.7 9.4-11.3 14.2z"/><path d="M119.8 683c-6.5-16.6-14.2-32.7-22.8-48.2-.5-.8-1.5-1-2.3-.5l-.3.3c-4.6 5.4-8.9 10.9-13.2 16.5-4.7-8.1-9.7-16-14.8-23.7-.6-.7-1.6-.9-2.4-.3l-.3.3c-5.2 7.7-10.1 15.7-14.8 23.7-4.2-5.6-8.6-11.1-13.2-16.5-.6-.7-1.7-.7-2.3-.1l-.3.3A432.6 432.6 0 0 0 10.3 683c-3.5.6-7 1.3-10.4 2.1v4.4c4.1-.9 8.2-1.7 12.4-2.4 7.9-1.3 15.8-2.3 23.8-3.1.5 0 .9-.3 1.1-.8 3.8-8 7.9-16 12.2-23.8 5.1 7 10 14.1 14.5 21.4.4.6 1.2.8 1.8.4.2-.1.3-.2.4-.4 4.6-7.3 9.5-14.4 14.5-21.4 4.3 7.8 8.4 15.7 12.2 23.8.2.4.6.7 1.1.8 8 .8 15.9 1.9 23.8 3.1 4.1.7 8.3 1.5 12.4 2.4v-4.4c-3.3-.7-6.8-1.4-10.3-2.1zM34 679.8c-6.2.7-12.4 1.5-18.6 2.4 5.8-14 12.4-27.7 19.7-41 3.9 4.7 7.7 9.4 11.3 14.2-4.3 8-8.5 16.1-12.4 24.4zm31.1-5.4c-4.2-6.6-8.6-13-13.2-19.3 4.2-7.2 8.6-14.2 13.2-21.1 4.6 6.9 9 14 13.2 21.1-4.6 6.3-9 12.8-13.2 19.3zm31.1 5.4c-3.9-8.3-8-16.4-12.4-24.4 3.7-4.8 7.5-9.6 11.4-14.2 7.3 13.3 13.9 27 19.7 41-6.3-.9-12.5-1.7-18.7-2.4z" fill="#fff"/><path class="st0" d="M33.2 634.8c.5-.8 1.5-1 2.3-.5l.3.3c4.5 5.4 9 10.9 13.2 16.5 4.7-8.1 9.7-16 14.8-23.7.6-.7 1.6-.9 2.4-.3l.3.3c5.2 7.7 10.1 15.7 14.8 23.7 4.2-5.6 8.6-11.1 13.2-16.5.6-.7 1.7-.7 2.3-.1l.3.3a432.6 432.6 0 0 1 22.8 48.2c3.5.6 7 1.3 10.4 2.1V424H0v261.1c3.5-.7 6.9-1.4 10.4-2.1 6.5-16.5 14.2-32.6 22.8-48.2zM130.1 424H0V-91h130.1v515z"/></svg>