<?xml version="1.0" encoding="UTF-8"?>
<svg width="138px" height="140px" viewBox="0 0 138 140" version="1.1" xmlns="http://www.w3.org/2000/svg" xmlns:xlink="http://www.w3.org/1999/xlink">
    <!-- Generator: Sketch 49.3 (51167) - http://www.bohemiancoding.com/sketch -->
    <title>Elements / Logo</title>
    <desc>Created with Sketch.</desc>
    <defs>
        <path d="M51.0111371,99.9830986 L48.3973439,99.9830986 C21.5504645,99.2879545 0,77.2376986 0,50.1383099 C0,22.6005634 22.2533009,0.276901408 49.7042521,0.276901408 C72.9768653,0.276901408 92.510596,16.3228169 97.9191289,37.9870423 L91.4413009,46.2777465 L85.5214269,37.9870423 L76.7876332,37.9870423 L87.0450602,52.3929577 L76.3186934,67.3867606 L85.0524871,67.3867606 L91.4413009,58.4492958 L96.8237192,66.0484507 C90.3361361,85.3908072 72.3464575,99.4306547 51.0111371,99.9830986 Z M65.0060115,67.3867606 L72.5674556,67.3867606 L72.5674556,24.4628169 L65.0060115,24.4628169 L65.0060115,67.3867606 Z M58.5579484,67.3867606 L58.5579484,49.2766197 C58.5579484,41.9264789 54.1619885,37.163662 47.4797364,37.163662 C43.4940287,37.163662 40.5632951,38.7512676 38.7459427,41.3974648 C37.1049341,38.6923944 34.4086705,37.163662 30.7745272,37.163662 C27.0230086,37.163662 24.2683381,38.6338028 22.6270487,41.1033803 L22.6270487,37.9870423 L15.0656046,37.9870423 L15.0656046,67.3867606 L22.6270487,67.3867606 L22.6270487,50.8642254 C22.6270487,46.4540845 24.9130602,44.2197183 28.1369513,44.2197183 C31.3021547,44.2197183 33.0605387,46.3366197 33.0605387,49.8056338 L33.0605387,67.3867606 L40.621702,67.3867606 L40.621702,50.8642254 C40.621702,46.4540845 42.7319312,44.2197183 46.0729169,44.2197183 C49.2381203,44.2197183 50.9965043,46.3366197 50.9965043,49.8056338 L50.9965043,67.3867606 L58.5579484,67.3867606 Z" id="path-1"></path>
        <linearGradient x1="75.7787144%" y1="7.89108917%" x2="26.6539107%" y2="85.8743876%" id="linearGradient-3">
            <stop stop-color="#8FA8BB" offset="0%"></stop>
            <stop stop-color="#5F7383" offset="100%"></stop>
        </linearGradient>
    </defs>
    <g id="🖥--Desktop" stroke="none" stroke-width="1" fill="none" fill-rule="evenodd">
        <g id="2.1-Landing-Page" transform="translate(-730.000000, -165.000000)">
            <g id="Landing-Page" transform="translate(0.000000, -765.000000)">
                <g id="Hero" transform="translate(0.000000, 845.000000)">
                    <g id="Top">
                        <g id="Elements-/-Logo" transform="translate(750.000000, 85.000000)">
                            <g id="Logo-Copy">
                                <circle id="Oval-Copy" fill="#FFFFFF" cx="49.7919573" cy="49.9318175" r="49.0227266"></circle>
                                <g id="Elements-/-Logo">
                                    <g id="Logo">
                                        <mask id="mask-2" fill="white">
                                            <use xlink:href="#path-1"></use>
                                        </mask>
                                        <g id="Clip-5"></g>
                                        <polygon id="Fill-4" fill="url(#linearGradient-3)" mask="url(#mask-2)" points="0 99.9830986 99.4087851 99.9830986 99.4087851 0.276901408 0 0.276901408"></polygon>
                                    </g>
                                </g>
                            </g>
                        </g>
                    </g>
                </g>
            </g>
        </g>
    </g>
</svg>