<svg width="520" height="207" xmlns="http://www.w3.org/2000/svg"><g id="Page-1" fill="none" fill-rule="evenodd" opacity=".03"><g id="04.-Exports-/-Patterns" transform="translate(-50 -1091)" fill="#000"><g id="Text-Fields" transform="translate(49 246)"><path d="M135.013 87.794l-29.627 29.853c-5.4 5.442-5.4 14.295 0 19.736l29.6 29.823 29.627-29.852c5.399-5.441 5.399-14.296-.001-19.737 0 0-20.687-20.845-29.599-29.823M134.987 181c-2.35 0-2.35 0-9.263-6.964l-28.357-28.573c-9.823-9.897-9.823-26 0-35.897l33.636-33.892a5.65 5.65 0 0 1 4.01-1.674c2.35 0 2.35 0 9.263 6.964l28.357 28.573c9.823 9.898 9.823 26.002 0 35.898l-33.637 33.891a5.642 5.642 0 0 1-4.01 1.674m170.027-93.206l-29.627 29.853c-5.4 5.442-5.4 14.295 0 19.736l29.6 29.823 29.627-29.852c5.399-5.441 5.399-14.296-.001-19.737 0 0-20.687-20.845-29.599-29.823M304.987 181c-2.35 0-2.35 0-9.263-6.964l-28.357-28.573c-9.823-9.897-9.823-26 0-35.897l33.636-33.892a5.65 5.65 0 0 1 4.01-1.674c2.35 0 2.35 0 9.263 6.964l28.357 28.573c9.823 9.898 9.823 26.002 0 35.898l-33.637 33.891a5.642 5.642 0 0 1-4.01 1.674m170.027-93.206l-29.627 29.853c-5.4 5.442-5.4 14.295 0 19.736l29.6 29.823 29.627-29.852c5.399-5.441 5.399-14.296-.001-19.737 0 0-20.687-20.845-29.599-29.823M474.987 181c-2.35 0-2.35 0-9.263-6.964l-28.357-28.573c-9.823-9.897-9.823-26 0-35.897l33.636-33.892a5.65 5.65 0 0 1 4.01-1.674c2.35 0 2.35 0 9.263 6.964l28.357 28.573c9.823 9.898 9.823 26.002 0 35.898l-33.637 33.891a5.642 5.642 0 0 1-4.01 1.674m-429.973 6.794l-29.627 29.853c-5.4 5.442-5.4 14.295 0 19.736l29.6 29.823 29.627-29.852c5.399-5.441 5.399-14.296-.001-19.737 0 0-20.687-20.845-29.599-29.823M44.987 281c-2.35 0-2.35 0-9.263-6.964L7.367 245.463c-9.823-9.897-9.823-26 0-35.897l33.636-33.892a5.65 5.65 0 0 1 4.01-1.674c2.35 0 2.35 0 9.263 6.964l28.357 28.573c9.823 9.898 9.823 26.002 0 35.898l-33.637 33.891a5.642 5.642 0 0 1-4.01 1.674m170.027-93.206l-29.627 29.853c-5.4 5.442-5.4 14.295 0 19.736l29.6 29.823 29.627-29.852c5.399-5.441 5.399-14.296-.001-19.737 0 0-20.687-20.845-29.599-29.823M214.987 281c-2.35 0-2.35 0-9.263-6.964l-28.357-28.573c-9.823-9.897-9.823-26 0-35.897l33.636-33.892a5.65 5.65 0 0 1 4.01-1.674c2.35 0 2.35 0 9.263 6.964l28.357 28.573c9.823 9.898 9.823 26.002 0 35.898l-33.637 33.891a5.642 5.642 0 0 1-4.01 1.674m170.027-93.206l-29.627 29.853c-5.4 5.442-5.4 14.295 0 19.736l29.6 29.823 29.627-29.852c5.399-5.441 5.399-14.296-.001-19.737 0 0-20.687-20.845-29.599-29.823M384.987 281c-2.35 0-2.35 0-9.263-6.964l-28.357-28.573c-9.823-9.897-9.823-26 0-35.897l33.636-33.892a5.65 5.65 0 0 1 4.01-1.674c2.35 0 2.35 0 9.263 6.964l28.357 28.573c9.823 9.898 9.823 26.002 0 35.898l-33.637 33.891a5.642 5.642 0 0 1-4.01 1.674" transform="translate(1 771)" id="Pattern_Nutrition"/></g></g></g></svg>