<svg width="360" height="200" xmlns="http://www.w3.org/2000/svg"><g id="Page-1" fill="none" fill-rule="evenodd" opacity=".03"><g id="04.-Exports-/-Patterns" transform="translate(-61 -310)" fill="#000"><g id="Text-Fields" transform="translate(49 246)"><path d="M184.992 108.936l-30.62-29.974c-4.625-4.526-12.148-4.526-16.773 0l-30.593 29.947-4.345-4.253a5.471 5.471 0 0 1 0-7.854l26.58-26.022c9.232-9.04 24.257-9.04 33.488 0l26.609 26.048a5.471 5.471 0 0 1 0 7.854l-4.346 4.254zm0 55.064l-30.62-29.975c-4.625-4.525-12.148-4.525-16.773 0l-30.593 29.948-4.345-4.253a5.471 5.471 0 0 1 0-7.854l26.58-26.023c9.232-9.04 24.257-9.04 33.488 0l26.609 26.048a5.471 5.471 0 0 1 0 7.855L184.992 164zm180-55.064l-30.62-29.974c-4.625-4.526-12.148-4.526-16.773 0l-30.593 29.947-4.345-4.253a5.471 5.471 0 0 1 0-7.854l26.58-26.022c9.232-9.04 24.257-9.04 33.488 0l26.609 26.048a5.471 5.471 0 0 1 0 7.854l-4.346 4.254zm0 55.064l-30.62-29.975c-4.625-4.525-12.148-4.525-16.773 0l-30.593 29.948-4.345-4.253a5.471 5.471 0 0 1 0-7.854l26.58-26.023c9.232-9.04 24.257-9.04 33.488 0l26.609 26.048a5.471 5.471 0 0 1 0 7.855L364.992 164zm-270 44.936l-30.62-29.974c-4.625-4.526-12.148-4.526-16.773 0l-30.593 29.947-4.345-4.253a5.471 5.471 0 0 1 0-7.854l26.58-26.022c9.232-9.04 24.257-9.04 33.488 0l26.609 26.048a5.471 5.471 0 0 1 0 7.854l-4.346 4.254zm0 55.064l-30.62-29.975c-4.625-4.525-12.148-4.525-16.773 0l-30.593 29.948-4.345-4.253a5.471 5.471 0 0 1 0-7.854l26.58-26.023c9.232-9.04 24.257-9.04 33.488 0l26.609 26.048a5.471 5.471 0 0 1 0 7.855L94.992 264zm180-55.064l-30.62-29.974c-4.625-4.526-12.148-4.526-16.773 0l-30.593 29.947-4.345-4.253a5.471 5.471 0 0 1 0-7.854l26.58-26.022c9.232-9.04 24.257-9.04 33.488 0l26.609 26.048a5.471 5.471 0 0 1 0 7.854l-4.346 4.254zm0 55.064l-30.62-29.975c-4.625-4.525-12.148-4.525-16.773 0l-30.593 29.948-4.345-4.253a5.471 5.471 0 0 1 0-7.854l26.58-26.023c9.232-9.04 24.257-9.04 33.488 0l26.609 26.048a5.471 5.471 0 0 1 0 7.855L274.992 264z" transform="translate(1)" id="Pattern_Core"/></g></g></g></svg>