<svg width="992" height="225" xmlns="http://www.w3.org/2000/svg"><g id="Page-1" fill="none" fill-rule="evenodd"><g id="04.-Exports-/-Patterns" transform="translate(-50 -2212)"><g id="Text-Fields" transform="translate(49 246)"><g id="Pattern_Toxins-Copy" transform="translate(1 1901)"><g id="Pattern_All" transform="translate(0 64)"><path id="Box" fill-opacity="0" fill="#FFF" d="M0 0h1000v250H0z"/><path d="M96 12.539c-21.208 0-38.461 17.253-38.461 38.46 0 21.209 17.253 38.462 38.46 38.462 21.208 0 38.461-17.253 38.461-38.462 0-21.207-17.253-38.46-38.46-38.46M96 101c-27.571 0-50-22.43-50-50S68.428 1 96 1c27.57 0 50 22.43 50 50s-22.43 50-50 50m401.5-79.363c-13.49 22.574-24.12 44.815-32.85 68.754 10.951-2.885 22.13-4.388 32.85-4.388 10.72 0 21.9 1.503 32.85 4.388-8.729-23.936-19.358-46.178-32.85-68.754m-41.892 83.36c-1.466 0-2.9-.592-3.97-1.7-1.513-1.565-2.03-3.884-1.331-5.975 10.633-31.779 24.132-60.272 42.48-89.669C493.82 6.001 495.595 5 497.5 5c1.905 0 3.68 1 4.714 2.653 18.35 29.4 31.848 57.894 42.479 89.669.7 2.091.182 4.41-1.331 5.977-1.514 1.566-3.758 2.108-5.788 1.386-13.142-4.65-27-7.107-40.074-7.107-13.074 0-26.931 2.458-40.075 7.107a5.433 5.433 0 0 1-1.817.313m-205.28-5.844L246 94.324l30.489-34.02c2.408-2.689 3.648-6.333 3.435-10.166-.187-3.335-1.612-6.436-3.73-8.798L246.026 7.674l4.327-4.828c2.207-2.461 5.783-2.461 7.99 0l26.467 29.535c4.454 4.967 6.906 11.576 6.906 18.604 0 7.028-2.452 13.636-6.906 18.605l-26.492 29.564c-2.207 2.461-5.785 2.461-7.99 0zm91.321 0c-2.206 2.461-5.784 2.461-7.99 0L307.19 69.619c-9.193-10.259-9.193-26.952 0-37.209l26.494-29.564c2.207-2.461 5.784-2.461 7.991 0L346 7.674l-30.487 34.022c-4.605 5.138-4.605 13.498 0 18.636l30.462 33.993-4.326 4.829zm354.364-84.36l-29.627 29.853c-5.4 5.442-5.4 14.295 0 19.736l29.6 29.823 29.627-29.852c5.399-5.441 5.399-14.296-.001-19.737 0 0-20.687-20.845-29.599-29.823M695.987 108c-2.35 0-2.35 0-9.263-6.964l-28.357-28.573c-9.823-9.897-9.823-26 0-35.897l33.636-33.892A5.65 5.65 0 0 1 696.013 1c2.35 0 2.35 0 9.263 6.964l28.357 28.573c9.823 9.898 9.823 26.002 0 35.898l-33.637 33.891a5.642 5.642 0 0 1-4.01 1.674m243.006-62.064l-30.619-29.974c-4.625-4.526-12.148-4.526-16.774 0l-30.593 29.947-4.344-4.253a5.471 5.471 0 0 1 0-7.854l26.58-26.022c9.232-9.04 24.257-9.04 33.488 0l26.608 26.048a5.471 5.471 0 0 1 0 7.854l-4.346 4.254zm0 55.064l-30.619-29.975c-4.625-4.525-12.148-4.525-16.774 0l-30.593 29.948-4.344-4.253a5.471 5.471 0 0 1 0-7.854l26.58-26.023c9.232-9.04 24.257-9.04 33.488 0l26.608 26.048a5.471 5.471 0 0 1 0 7.855L938.992 101zM197.5 141.637c-13.49 22.574-24.12 44.815-32.85 68.754 10.951-2.885 22.13-4.388 32.85-4.388 10.72 0 21.9 1.503 32.85 4.388-8.729-23.936-19.358-46.178-32.85-68.754m-41.892 83.36c-1.466 0-2.9-.592-3.97-1.7-1.513-1.565-2.03-3.884-1.331-5.975 10.633-31.779 24.132-60.272 42.48-89.669 1.033-1.652 2.808-2.653 4.713-2.653 1.905 0 3.68 1 4.714 2.653 18.35 29.4 31.848 57.894 42.479 89.669.7 2.091.182 4.41-1.331 5.977-1.514 1.566-3.758 2.108-5.788 1.386-13.142-4.65-27-7.107-40.074-7.107-13.074 0-26.931 2.458-40.075 7.107a5.433 5.433 0 0 1-1.817.313zM41.65 219.155c-2.206 2.461-5.784 2.461-7.99 0L7.19 189.619c-9.193-10.259-9.193-26.952 0-37.209l26.494-29.564c2.207-2.461 5.784-2.461 7.991 0L46 127.674l-30.487 34.022c-4.605 5.138-4.605 13.498 0 18.636l30.462 33.993-4.326 4.829zm354.364-86.36l-29.627 29.853c-5.4 5.442-5.4 14.295 0 19.736l29.6 29.823 29.627-29.852c5.399-5.441 5.399-14.296-.001-19.737 0 0-20.687-20.845-29.599-29.823M395.987 226c-2.35 0-2.35 0-9.263-6.964l-28.357-28.573c-9.823-9.897-9.823-26 0-35.897l33.636-33.892a5.65 5.65 0 0 1 4.01-1.674c2.35 0 2.35 0 9.263 6.964l28.357 28.573c9.823 9.898 9.823 26.002 0 35.898l-33.637 33.891a5.642 5.642 0 0 1-4.01 1.674m243.006-60.064l-30.619-29.974c-4.625-4.526-12.148-4.526-16.774 0l-30.593 29.947-4.344-4.253a5.471 5.471 0 0 1 0-7.854l26.58-26.022c9.232-9.04 24.257-9.04 33.488 0l26.608 26.048a5.471 5.471 0 0 1 0 7.854l-4.346 4.254zm0 55.064l-30.619-29.975c-4.625-4.525-12.148-4.525-16.774 0l-30.593 29.948-4.344-4.253a5.471 5.471 0 0 1 0-7.854l26.58-26.023c9.232-9.04 24.257-9.04 33.488 0l26.608 26.048a5.471 5.471 0 0 1 0 7.855L638.992 221zM796 132.539c-21.207 0-38.46 17.253-38.46 38.46 0 21.209 17.253 38.462 38.46 38.462 21.208 0 38.461-17.253 38.461-38.462 0-21.207-17.253-38.46-38.46-38.46M796 221c-27.571 0-50-22.43-50-50s22.429-50 50-50c27.57 0 50 22.43 50 50s-22.43 50-50 50zm154.327-1.846l-4.327-4.83 30.489-34.02c2.408-2.689 3.648-6.333 3.435-10.166-.187-3.335-1.612-6.436-3.73-8.798l-30.168-33.666 4.327-4.828c2.207-2.461 5.783-2.461 7.99 0l26.467 29.535c4.454 4.967 6.906 11.576 6.906 18.604 0 7.028-2.452 13.636-6.906 18.605l-26.492 29.564c-2.207 2.461-5.785 2.461-7.99 0z" id="Pattern" fill-opacity=".03" fill="#000"/></g></g></g></g></g></svg>