<svg width="481" height="201" xmlns="http://www.w3.org/2000/svg"><g id="Page-1" fill="none" fill-rule="evenodd" opacity=".03"><g id="04.-Exports-/-Patterns" transform="translate(-95 -1841)" fill="#000"><g id="Text-Fields" transform="translate(49 246)"><path d="M49.327 162.154L45 157.324l30.489-34.02c2.408-2.69 3.648-6.333 3.435-10.167-.187-3.334-1.612-6.435-3.73-8.798L45.026 70.674l4.327-4.828c2.207-2.462 5.783-2.462 7.99 0L83.81 95.381c4.454 4.967 6.906 11.576 6.906 18.604 0 7.028-2.452 13.636-6.906 18.605l-26.492 29.564c-2.207 2.461-5.785 2.461-7.99 0zm91.322 0c-2.206 2.461-5.784 2.461-7.99 0l-26.469-29.535c-9.193-10.259-9.193-26.952 0-37.209l26.494-29.564c2.207-2.462 5.784-2.462 7.991 0L145 70.674l-30.487 34.021c-4.605 5.139-4.605 13.499 0 18.637l30.462 33.993-4.326 4.829zm68.678 0l-4.327-4.83 30.489-34.02c2.408-2.69 3.648-6.333 3.435-10.167-.187-3.334-1.612-6.435-3.73-8.798l-30.168-33.665 4.327-4.828c2.207-2.462 5.783-2.462 7.99 0l26.467 29.535c4.454 4.967 6.906 11.576 6.906 18.604 0 7.028-2.452 13.636-6.906 18.605l-26.492 29.564c-2.207 2.461-5.785 2.461-7.99 0zm91.322 0c-2.206 2.461-5.784 2.461-7.99 0l-26.469-29.535c-9.193-10.259-9.193-26.952 0-37.209l26.494-29.564c2.207-2.462 5.784-2.462 7.991 0L305 70.674l-30.487 34.021c-4.605 5.139-4.605 13.499 0 18.637l30.462 33.993-4.326 4.829zm68.678 0l-4.327-4.83 30.489-34.02c2.408-2.69 3.648-6.333 3.435-10.167-.187-3.334-1.612-6.435-3.73-8.798l-30.168-33.665 4.327-4.828c2.207-2.462 5.783-2.462 7.99 0l26.467 29.535c4.454 4.967 6.906 11.576 6.906 18.604 0 7.028-2.452 13.636-6.906 18.605l-26.492 29.564c-2.207 2.461-5.785 2.461-7.99 0zm91.322 0c-2.206 2.461-5.784 2.461-7.99 0l-26.469-29.535c-9.193-10.259-9.193-26.952 0-37.209l26.494-29.564c2.207-2.462 5.784-2.462 7.991 0L465 70.674l-30.487 34.021c-4.605 5.139-4.605 13.499 0 18.637l30.462 33.993-4.326 4.829zm23.678 101l-4.327-4.83 30.489-34.02c2.408-2.69 3.648-6.333 3.435-10.167-.187-3.334-1.612-6.435-3.73-8.798l-30.168-33.665 4.327-4.828c2.207-2.462 5.783-2.462 7.99 0l26.467 29.535c4.454 4.967 6.906 11.576 6.906 18.604 0 7.028-2.452 13.636-6.906 18.605l-26.492 29.564c-2.207 2.461-5.785 2.461-7.99 0zm-388.678 0c-2.206 2.461-5.784 2.461-7.99 0L61.19 233.619c-9.193-10.259-9.193-26.952 0-37.209l26.494-29.564c2.207-2.462 5.784-2.462 7.991 0l4.325 4.828-30.487 34.021c-4.605 5.139-4.605 13.499 0 18.637l30.462 33.993-4.326 4.829zm68.678 0l-4.327-4.83 30.489-34.02c2.408-2.69 3.648-6.333 3.435-10.167-.187-3.334-1.612-6.435-3.73-8.798l-30.168-33.665 4.327-4.828c2.207-2.462 5.783-2.462 7.99 0l26.467 29.535c4.454 4.967 6.906 11.576 6.906 18.604 0 7.028-2.452 13.636-6.906 18.605l-26.492 29.564c-2.207 2.461-5.785 2.461-7.99 0zm91.322 0c-2.206 2.461-5.784 2.461-7.99 0l-26.469-29.535c-9.193-10.259-9.193-26.952 0-37.209l26.494-29.564c2.207-2.462 5.784-2.462 7.991 0l4.325 4.828-30.487 34.021c-4.605 5.139-4.605 13.499 0 18.637l30.462 33.993-4.326 4.829zm68.678 0l-4.327-4.83 30.489-34.02c2.408-2.69 3.648-6.333 3.435-10.167-.187-3.334-1.612-6.435-3.73-8.798l-30.168-33.665 4.327-4.828c2.207-2.462 5.783-2.462 7.99 0l26.467 29.535c4.454 4.967 6.906 11.576 6.906 18.604 0 7.028-2.452 13.636-6.906 18.605l-26.492 29.564c-2.207 2.461-5.785 2.461-7.99 0zm91.322 0c-2.206 2.461-5.784 2.461-7.99 0l-26.469-29.535c-9.193-10.259-9.193-26.952 0-37.209l26.494-29.564c2.207-2.462 5.784-2.462 7.991 0l4.325 4.828-30.487 34.021c-4.605 5.139-4.605 13.499 0 18.637l30.462 33.993-4.326 4.829z" transform="translate(1 1531)" id="Pattern_Toxins"/></g></g></g></svg>