<svg width="600" height="200" xmlns="http://www.w3.org/2000/svg"><g id="Page-1" fill="none" fill-rule="evenodd" opacity=".03"><g id="04.-Exports-/-Patterns" transform="translate(-51 -1465)" fill="#000"><g id="Text-Fields" transform="translate(49 246)"><path d="M51 175.539c-21.208 0-38.461 17.253-38.461 38.46 0 21.209 17.253 38.462 38.46 38.462 21.208 0 38.461-17.253 38.461-38.462 0-21.207-17.253-38.46-38.46-38.46M51 264c-27.571 0-50-22.43-50-50s22.429-50 50-50c27.57 0 50 22.43 50 50s-22.43 50-50 50M151 75.539c-21.208 0-38.461 17.253-38.461 38.46 0 21.209 17.253 38.462 38.46 38.462 21.208 0 38.461-17.253 38.461-38.462 0-21.207-17.253-38.46-38.46-38.46M151 164c-27.571 0-50-22.43-50-50s22.429-50 50-50c27.57 0 50 22.43 50 50s-22.43 50-50 50m100 11.539c-21.208 0-38.461 17.253-38.461 38.46 0 21.209 17.253 38.462 38.46 38.462 21.208 0 38.461-17.253 38.461-38.462 0-21.207-17.253-38.46-38.46-38.46M251 264c-27.571 0-50-22.43-50-50s22.429-50 50-50c27.57 0 50 22.43 50 50s-22.43 50-50 50M351 75.539c-21.208 0-38.461 17.253-38.461 38.46 0 21.209 17.253 38.462 38.46 38.462 21.208 0 38.461-17.253 38.461-38.462 0-21.207-17.253-38.46-38.46-38.46M351 164c-27.571 0-50-22.43-50-50s22.429-50 50-50c27.57 0 50 22.43 50 50s-22.43 50-50 50m100 11.539c-21.207 0-38.46 17.253-38.46 38.46 0 21.209 17.253 38.462 38.46 38.462s38.46-17.253 38.46-38.462c0-21.207-17.253-38.46-38.46-38.46M451 264c-27.57 0-50-22.43-50-50s22.43-50 50-50 50 22.43 50 50-22.43 50-50 50M551 75.539c-21.207 0-38.46 17.253-38.46 38.46 0 21.209 17.253 38.462 38.46 38.462s38.46-17.253 38.46-38.462c0-21.207-17.253-38.46-38.46-38.46M551 164c-27.57 0-50-22.43-50-50s22.43-50 50-50 50 22.43 50 50-22.43 50-50 50" transform="translate(1 1155)" id="Pattern_Oxygen"/></g></g></g></svg>