<svg width="45" height="6" xmlns="http://www.w3.org/2000/svg" xmlns:xlink="http://www.w3.org/1999/xlink"><defs><path d="M22.502 5.703L22.199 6l-4.083-4.002a1.606 1.606 0 0 0-2.236 0L11.8 5.996l-.298-.293-.303.297-4.083-4.002a1.606 1.606 0 0 0-2.236 0L.8 5.996.223 5.43a.731.731 0 0 1 0-1.05L3.766.906a3.206 3.206 0 0 1 4.465 0l3.267 3.204L14.766.905a3.206 3.206 0 0 1 4.465 0l3.267 3.204L25.766.905a3.206 3.206 0 0 1 4.465 0l3.267 3.204L36.766.905a3.206 3.206 0 0 1 4.465 0l3.547 3.478a.73.73 0 0 1 0 1.049L44.2 6l-4.083-4.002a1.606 1.606 0 0 0-2.236 0L33.8 5.996l-.298-.293-.303.297-4.083-4.002a1.606 1.606 0 0 0-2.236 0L22.8 5.996l-.298-.293z" id="path-1"/></defs><g id="Page-1" fill="none" fill-rule="evenodd"><g id="01.-Exports-/-Symbols" transform="translate(-50 -407)"><g id="Elements-/-Fixings-/-Line-Wave" transform="translate(50 407)"><mask id="mask-2" fill="#fff"><use xlink:href="#path-1"/></mask><use id="Line-Wave" fill="#E6EBEF" xlink:href="#path-1"/></g></g></g></svg>