<svg width="5600" height="84" xmlns="http://www.w3.org/2000/svg" xmlns:xlink="http://www.w3.org/1999/xlink"><defs><path d="M0 86.851C0 86.702 170 56 300 56s320 40 500 40 370-40 500-40 320 40 500 40 370-40 500-40 320 40 500 40 370-40 500-40 320 40 500 40 370-40 500-40 320 40 500 40 370-40 500-40 300 31 300 31V0H0v86.851z" id="path-1"/></defs><g id="Page-1" fill="none" fill-rule="evenodd"><g id="03.-Exports-/-Waves" transform="translate(-50 -570)"><g id="Group-Wave-(Dark)" transform="translate(50 558)"><mask id="mask-2" fill="#fff"><use xlink:href="#path-1"/></mask><path d="M2605 51.894c179 0 364-39.894 500-39.894s300 30.851 300 30.851V162h-800c-119.333-73.404-119.333-110.106 0-110.106zm-2000 0c161.174 0 327.213-32.344 457.966-38.786C1077.427 12.396 1091.456 12 1105 12c136 0 300 30.851 300 30.851V162H605C485.667 88.596 485.667 51.894 605 51.894zm4000 0c179 0 364-39.894 500-39.894s300 30.851 300 30.851V162h-800c-119.333-73.404-119.333-110.106 0-110.106z" id="Dark" fill="#B6BFC6" mask="url(#mask-2)"/><path d="M1610 51.894c179 0 364-39.894 500-39.894s300 30.851 300 30.851V162h-800c-119.333-73.404-119.333-110.106 0-110.106zm-2000 0c161.174 0 327.213-32.344 457.966-38.786C82.427 12.396 96.456 12 110 12c136 0 300 30.851 300 30.851V162h-800c-119.333-73.404-119.333-110.106 0-110.106zm4000 0c179 0 364-39.894 500-39.894s300 30.851 300 30.851V162h-800c-119.333-73.404-119.333-110.106 0-110.106z" id="Light" fill="#CDD4DA" mask="url(#mask-2)"/><path d="M4588 176H-712V56.851S-543 26-412 26-91 65.894 88 65.894c93.396 0 188.426-10.861 277.277-21.249C426.305 36.025 513.327 26 588 26h.014c83.492.001 177.534 11.629 237.703 20.607C910.32 56.355 1000.475 65.894 1088 65.894c93.396 0 188.426-10.861 277.277-21.249C1426.305 36.025 1513.327 26 1588 26h.014c83.492.001 177.534 11.629 237.703 20.607 84.602 9.748 174.758 19.287 262.283 19.287 178.828 0 363.644-39.817 499.608-39.894h.392c131 0 321 39.894 500 39.894 93.396 0 188.426-10.861 277.277-21.249C3426.305 36.025 3513.327 26 3588 26h.015c83.491.001 177.533 11.629 237.702 20.607 84.602 9.748 174.758 19.287 262.283 19.287 178.828 0 363.644-39.817 499.608-39.894h.392c131 0 321 39.894 500 39.894S5452 26 5588 26s300 30.851 300 30.851V176H4588z" id="Front" fill="#E6EBEF" mask="url(#mask-2)"/></g></g></g></svg>