<svg width="51" height="39" xmlns="http://www.w3.org/2000/svg"><g id="Page-1" fill="none" fill-rule="evenodd"><g id="01.-Exports-/-Symbols" transform="translate(-58 -1087)" fill="#898989"><g id="Blog-Elements" transform="translate(50 1029)"><path d="M52.8 58l1.26 1.96c-8.68 5.693-13.02 11.387-13.02 17.08 0 2.893 1.26 4.573 3.78 5.04l5.88-5.46c1.867.653 3.57 1.843 5.11 3.57 1.54 1.727 2.31 3.943 2.31 6.65 0 2.707-1.073 5.017-3.22 6.93-2.147 1.913-4.97 2.87-8.47 2.87-3.5 0-6.393-1.19-8.68-3.57s-3.43-5.67-3.43-9.87c0-9.147 6.16-17.547 18.48-25.2zm-26.32 0l1.26 1.96c-8.68 5.693-13.02 11.387-13.02 17.08 0 2.893 1.26 4.573 3.78 5.04l5.88-5.46c1.867.653 3.57 1.843 5.11 3.57 1.54 1.727 2.31 3.943 2.31 6.65 0 2.707-1.073 5.017-3.22 6.93-2.147 1.913-4.97 2.87-8.47 2.87-3.5 0-6.393-1.19-8.68-3.57S8 87.4 8 83.2c0-9.147 6.16-17.547 18.48-25.2z" id="Icon-Quote"/></g></g></g></svg>
