<svg width="20" height="30" xmlns="http://www.w3.org/2000/svg"><g id="Page-1" fill="none" fill-rule="evenodd"><g id="01.-Exports-/-Symbols" transform="translate(-50 -1255)" fill-rule="nonzero" fill="#D87E56"><g id="Misc" transform="translate(50 1199)"><path d="M15.202 61.3c-.409-.4-1.09-.4-1.512 0a.974.974 0 0 0 0 1.42l7.666 7.268H-3.942c-.59.001-1.058.446-1.058 1.005 0 .559.469 1.018 1.058 1.018h25.298l-7.666 7.255a.991.991 0 0 0 0 1.433c.423.401 1.104.401 1.512 0l9.48-8.989a.952.952 0 0 0 0-1.42l-9.48-8.99z" id="Icon-DownArrow" transform="rotate(90 10 71)"/></g></g></g></svg>