<svg width="63" height="60" xmlns="http://www.w3.org/2000/svg"><g id="Page-1" fill="none" fill-rule="evenodd"><g id="01.-Exports-/-Symbols" transform="translate(-50 -1405)" fill-rule="nonzero"><g id="Info-Icons" transform="translate(50 1339)"><g id="Icon-List" transform="translate(0 66)"><path d="M60.83.04H14.857c-.737 0-1.335.598-1.335 1.336v26.546H1.335C.598 27.922 0 28.52 0 29.258V51.89c0 4.464 3.632 8.097 8.097 8.097h45.97c4.465 0 8.098-3.633 8.098-8.097V1.376c0-.738-.598-1.336-1.336-1.336zM2.67 51.89V30.594h10.853V51.89a5.433 5.433 0 0 1-5.426 5.426 5.433 5.433 0 0 1-5.426-5.426zm56.824 0a5.433 5.433 0 0 1-5.427 5.427H14.101a8.067 8.067 0 0 0 2.093-5.426V2.71h43.3v49.18zM35.968 15.465h17.115a1.335 1.335 0 1 0 0-2.67H35.968a1.335 1.335 0 1 0 0 2.67zm0 14.67h17.115a1.335 1.335 0 1 0 0-2.671H35.968a1.335 1.335 0 1 0 0 2.67zm0 14.669h17.115a1.335 1.335 0 1 0 0-2.67H35.968a1.335 1.335 0 1 0 0 2.67z" id="Shape" fill="#5D7689"/><path d="M23.646 16.966l-2.969-3.143a1.335 1.335 0 1 1 1.942-1.834l1.982 2.098 6.365-6.971a1.336 1.336 0 0 1 1.972 1.8l-7.334 8.034c-.25.274-.604.432-.976.435h-.01c-.368 0-.72-.151-.972-.419zm7.32 5.457a1.335 1.335 0 1 1 1.972 1.8l-7.334 8.033c-.25.275-.604.432-.976.435h-.01c-.368 0-.72-.15-.972-.418l-2.969-3.143a1.335 1.335 0 0 1 1.942-1.834l1.982 2.098 6.365-6.971zm0 15.306a1.335 1.335 0 0 1 1.972 1.801l-7.334 8.033c-.25.275-.604.432-.976.435h-.01c-.368 0-.72-.151-.972-.418l-2.969-3.144a1.335 1.335 0 0 1 1.942-1.833L24.6 44.7l6.365-6.972z" id="Shape" fill="#58BFBA"/></g></g></g></g></svg>