<svg width="48" height="50" xmlns="http://www.w3.org/2000/svg"><g id="Page-1" fill="none" fill-rule="evenodd"><g id="01.-Exports-/-Symbols" transform="translate(-770 -1405)"><g id="Info-Icons" transform="translate(50 1339)"><g id="icon-clock" transform="translate(720 66)"><path d="M46.536 2.928h-9.592V1.474A1.47 1.47 0 0 0 35.48 0a1.47 1.47 0 0 0-1.464 1.474v1.454h-8.552V1.474A1.47 1.47 0 0 0 24 0a1.47 1.47 0 0 0-1.464 1.474v1.454h-8.189V1.474A1.47 1.47 0 0 0 12.883 0a1.47 1.47 0 0 0-1.464 1.474v1.454H1.464A1.47 1.47 0 0 0 0 4.402v33.303a1.47 1.47 0 0 0 1.464 1.473h8.985C11.889 45.372 17.416 50 24 50c6.584 0 12.111-4.628 13.551-10.822h8.985A1.47 1.47 0 0 0 48 37.705V4.402c0-.814-.655-1.474-1.464-1.474zM11.42 5.875v1.332a1.47 1.47 0 0 0 1.464 1.474 1.47 1.47 0 0 0 1.464-1.474V5.875h8.19v1.332A1.47 1.47 0 0 0 24 8.681a1.47 1.47 0 0 0 1.464-1.474V5.875h8.552v1.332a1.47 1.47 0 0 0 1.464 1.474 1.47 1.47 0 0 0 1.464-1.474V5.875h8.128v6.028H2.928V5.875h8.491zM24 47.052c-6.061 0-10.992-4.965-10.992-11.067S17.938 24.918 24 24.918c6.061 0 10.992 4.964 10.992 11.067S30.062 47.052 24 47.052zm13.914-10.821c.001-.082.006-.164.006-.246 0-7.728-6.244-14.015-13.92-14.015s-13.92 6.287-13.92 14.015c0 .082.005.164.006.246H2.928V14.85h42.144v21.38h-7.158z" id="Shape" fill="#5D7689" fill-rule="nonzero"/><path d="M25.68 36.275v-7.114a1.47 1.47 0 0 0-2.942 0v7.724c0 .39.155.764.43 1.04l3.38 3.38c.288.287.664.43 1.04.43a1.47 1.47 0 0 0 1.04-2.51l-2.949-2.95z" id="Path" fill="#58BFBA"/></g></g></g></g></svg>