<svg width="50" height="50" xmlns="http://www.w3.org/2000/svg"><g id="Page-1" fill="none" fill-rule="evenodd"><g id="01.-Exports-/-Symbols" transform="translate(-645 -1406)" fill-rule="nonzero"><g id="Info-Icons" transform="translate(50 1339)"><g id="Icon-Building" transform="translate(595 67)"><path d="M35.833 46.667H12.5a.834.834 0 0 0-.833.833v1.667a.834.834 0 0 0 1.666 0v-.834h22.5a.834.834 0 0 0 0-1.666zm-17.5-25.834c0 .46.374.834.834.834H22.5c.46 0 .833-.374.833-.834v-5A.834.834 0 0 0 22.5 15h-3.333a.834.834 0 0 0-.834.833v5zM20 16.667h1.667V20H20v-3.333zM10.833 10h-10a.834.834 0 0 0-.833.833V27.5a.834.834 0 0 0 1.667 0V11.667h9.166a.834.834 0 0 0 0-1.667zM40 40.833c0 .46.373.834.833.834h3.334c.46 0 .833-.374.833-.834v-5a.834.834 0 0 0-.833-.833h-3.334a.834.834 0 0 0-.833.833v5zm1.667-4.166h1.666V40h-1.666v-3.333z" id="Shape" fill="#5D7689"/><path d="M4.167 30C.047 30 0 40.725 0 40.833a4.174 4.174 0 0 0 3.333 4.083v4.25a.834.834 0 0 0 1.667 0v-4.25a4.174 4.174 0 0 0 3.333-4.083C8.333 40.725 8.286 30 4.167 30zm0 13.333a2.503 2.503 0 0 1-2.5-2.5c0-4.151 1.115-9.166 2.5-9.166s2.5 5.015 2.5 9.166c0 1.379-1.122 2.5-2.5 2.5z" id="Shape" fill="#58BFBA"/><path d="M9.167 25H5.833a.834.834 0 0 0-.833.833V27.5a.834.834 0 0 0 1.667 0v-.833h1.666v4.166a.834.834 0 0 0 1.667 0v-5A.834.834 0 0 0 9.167 25zm31.666-3.333h3.334c.46 0 .833-.374.833-.834v-5a.834.834 0 0 0-.833-.833h-3.334a.834.834 0 0 0-.833.833v5c0 .46.373.834.833.834zm.834-5h1.666V20h-1.666v-3.333zM9.167 15H5.833a.834.834 0 0 0-.833.833v5c0 .46.373.834.833.834h3.334c.46 0 .833-.374.833-.834v-5A.833.833 0 0 0 9.167 15zm-.834 5H6.667v-3.333h1.666V20zm18.334.833c0 .46.373.834.833.834h3.333c.46 0 .834-.374.834-.834v-5a.834.834 0 0 0-.834-.833H27.5a.834.834 0 0 0-.833.833v5zm1.666-4.166H30V20h-1.667v-3.333z" id="Shape" fill="#5D7689"/><path d="M49.167 10h-10a.834.834 0 0 0 0 1.667h9.166v33.486A2.467 2.467 0 0 0 47.5 45a2.45 2.45 0 0 0-.428.038 3.31 3.31 0 0 0-2.905-1.705 3.31 3.31 0 0 0-2.905 1.705 2.503 2.503 0 0 0-2.928 2.462c0 1.378 1.121 2.5 2.5 2.5H47.5c1.378 0 2.5-1.122 2.5-2.5V10.833a.834.834 0 0 0-.833-.833zM47.5 48.333h-6.667A.835.835 0 0 1 40 47.5c0-.46.374-.833.833-.833.16 0 .312.045.452.136a.836.836 0 0 0 1.263-.513c.176-.76.842-1.29 1.619-1.29.776 0 1.442.53 1.618 1.29a.831.831 0 0 0 1.263.513c.543-.35 1.285.078 1.285.697 0 .46-.374.833-.833.833zm-20-36.666h3.333c.46 0 .834-.374.834-.834v-5A.834.834 0 0 0 30.833 5H27.5a.834.834 0 0 0-.833.833v5c0 .46.373.834.833.834zm.833-5H30V10h-1.667V6.667zm-1.666 24.166c0 .46.373.834.833.834h3.333c.46 0 .834-.374.834-.834v-5a.834.834 0 0 0-.834-.833H27.5a.834.834 0 0 0-.833.833v5zm1.666-4.166H30V30h-1.667v-3.333zm-9.166-15H22.5c.46 0 .833-.374.833-.834v-5A.834.834 0 0 0 22.5 5h-3.333a.834.834 0 0 0-.834.833v5c0 .46.374.834.834.834zm.833-5h1.667V10H20V6.667zm4.408 33.575a.876.876 0 0 0-.241.591c0 .217.091.434.241.592.159.15.375.242.592.242a.876.876 0 0 0 .592-.242.876.876 0 0 0 .241-.592.876.876 0 0 0-.241-.591.872.872 0 0 0-1.184 0zm-6.075-9.409c0 .46.374.834.834.834H22.5c.46 0 .833-.374.833-.834v-5A.834.834 0 0 0 22.5 25h-3.333a.834.834 0 0 0-.834.833v5zM20 26.667h1.667V30H20v-3.333z" id="Shape" fill="#5D7689"/><path d="M16.667 35.833c0 .46.373.834.833.834H20v7.5a.834.834 0 0 0 1.667 0v-7.5h6.666v7.5a.834.834 0 0 0 1.667 0v-7.5h2.5a.834.834 0 0 0 0-1.667h-15a.834.834 0 0 0-.833.833zm23.333-5c0 .46.373.834.833.834h3.334c.46 0 .833-.374.833-.834v-5a.834.834 0 0 0-.833-.833h-3.334a.834.834 0 0 0-.833.833v5zm1.667-4.166h1.666V30h-1.666v-3.333z" id="Shape" fill="#5D7689"/><path d="M35.833 0H14.167a.834.834 0 0 0-.834.833v43.334a.834.834 0 0 0 1.667 0v-42.5h20v42.5a.834.834 0 0 0 1.667 0V.833A.834.834 0 0 0 35.833 0z" id="Shape" fill="#5D7689"/></g></g></g></g></svg>