<svg id="Layer_1" xmlns="http://www.w3.org/2000/svg" viewBox="-326.8 577.9 206.3 200.7"><g id="Page-1"><g id="_x30_1.-Exports-_x2F_-Symbols" transform="translate(-450 -1281)"><g id="Symbols-Background" transform="translate(50 1199)"><path id="Mindset_Solid" d="M168.8 857.4c-1.9 2-4.6 3.2-7.6 3.2-4.3 0-8.3-2.4-10.5-6.2-33-58-57.5-115.5-77-181-1.1-3.7-.3-7.5 2.2-10.2 2.5-2.7 6.2-3.8 10-3 66.9 14.2 126.2 34 186.6 62.3 4 1.9 6.7 5.7 7.1 10 .3 4.2-1.7 8.1-5.4 10-23.8 12.1-45.3 28.1-62.1 46.3-16.9 18.3-31.1 41-41.2 65.6-.7 1.1-1.3 2.1-2.1 3" fill="#aa6340"/></g></g></g></svg>