<svg width="571" height="200" xmlns="http://www.w3.org/2000/svg"><g id="Page-1" fill="none" fill-rule="evenodd" opacity=".03"><g id="04.-Exports-/-Patterns" transform="translate(-49 -701)" fill="#000"><g id="Text-Fields" transform="translate(49 246)"><path d="M333.15 91.637c-13.49 22.574-24.12 44.815-32.852 68.754 10.952-2.885 22.131-4.388 32.851-4.388 10.72 0 21.9 1.503 32.85 4.388-8.729-23.936-19.358-46.178-32.85-68.754m-41.891 83.36a5.514 5.514 0 0 1-3.971-1.7c-1.513-1.565-2.03-3.884-1.331-5.975 10.633-31.779 24.132-60.272 42.48-89.669 1.033-1.652 2.808-2.653 4.713-2.653 1.906 0 3.681 1 4.714 2.653 18.35 29.4 31.848 57.894 42.479 89.669.7 2.091.182 4.41-1.33 5.977-1.515 1.566-3.759 2.108-5.788 1.386-13.143-4.65-27-7.107-40.075-7.107-13.073 0-26.931 2.458-40.075 7.107a5.433 5.433 0 0 1-1.816.313m-148.109-83.36c-13.49 22.573-24.119 44.814-32.85 68.753 10.951-2.885 22.13-4.388 32.85-4.388 10.72 0 21.9 1.503 32.85 4.388-8.729-23.936-19.358-46.178-32.85-68.754m-41.891 83.36a5.514 5.514 0 0 1-3.971-1.7c-1.513-1.565-2.03-3.884-1.331-5.975 10.633-31.779 24.132-60.272 42.48-89.669 1.033-1.652 2.808-2.653 4.713-2.653 1.906 0 3.681 1 4.714 2.653 18.35 29.4 31.848 57.894 42.479 89.669.7 2.091.182 4.41-1.33 5.977-1.515 1.566-3.759 2.108-5.788 1.386-13.143-4.65-27-7.107-40.075-7.107-13.073 0-26.931 2.458-40.075 7.107a5.433 5.433 0 0 1-1.816.313m421.891-83.36c-13.49 22.573-24.119 44.814-32.85 68.753 10.951-2.885 22.13-4.388 32.85-4.388 10.72 0 21.9 1.503 32.85 4.388-8.729-23.936-19.358-46.178-32.85-68.754m-41.891 83.36a5.514 5.514 0 0 1-3.971-1.7c-1.513-1.565-2.03-3.884-1.331-5.975 10.633-31.779 24.132-60.272 42.48-89.669 1.033-1.652 2.808-2.653 4.713-2.653 1.906 0 3.681 1 4.714 2.653 18.35 29.4 31.848 57.894 42.479 89.669.7 2.091.182 4.41-1.33 5.977-1.515 1.566-3.759 2.108-5.788 1.386-13.143-4.65-27-7.107-40.075-7.107-13.073 0-26.931 2.458-40.075 7.107a5.433 5.433 0 0 1-1.816.313M47.85 192c-13.49 22.574-24.12 44.815-32.851 68.754 10.952-2.885 22.13-4.389 32.851-4.389 10.72 0 21.9 1.504 32.85 4.389-8.73-23.936-19.358-46.179-32.85-68.754M5.608 274.998c-1.466 0-2.9-.593-3.97-1.7-1.513-1.566-2.03-3.885-1.331-5.976 10.633-31.779 24.132-60.272 42.48-89.669C43.82 176.001 45.595 175 47.5 175c1.905 0 3.68 1 4.714 2.653 18.35 29.4 31.848 57.894 42.479 89.669.7 2.091.182 4.41-1.331 5.977-1.514 1.566-3.758 2.108-5.788 1.386-13.142-4.65-27-7.107-40.074-7.107-13.074 0-26.931 2.458-40.075 7.107a5.433 5.433 0 0 1-1.817.313M238.851 192c-13.49 22.574-24.12 44.815-32.851 68.754 10.952-2.885 22.13-4.389 32.851-4.389 10.72 0 21.9 1.504 32.85 4.389-8.73-23.936-19.358-46.179-32.85-68.754m-42.243 82.998c-1.466 0-2.9-.593-3.97-1.7-1.513-1.566-2.03-3.885-1.331-5.976 10.633-31.779 24.132-60.272 42.48-89.669 1.033-1.652 2.808-2.653 4.713-2.653 1.905 0 3.68 1 4.714 2.653 18.35 29.4 31.848 57.894 42.479 89.669.7 2.091.182 4.41-1.331 5.977-1.514 1.566-3.758 2.108-5.788 1.386-13.142-4.65-27-7.107-40.074-7.107-13.074 0-26.931 2.458-40.075 7.107a5.433 5.433 0 0 1-1.817.313M427.851 192c-13.49 22.574-24.12 44.815-32.851 68.754 10.952-2.885 22.13-4.389 32.851-4.389 10.72 0 21.9 1.504 32.85 4.389-8.73-23.936-19.358-46.179-32.85-68.754m-42.243 82.998c-1.466 0-2.9-.593-3.97-1.7-1.513-1.566-2.03-3.885-1.331-5.976 10.633-31.779 24.132-60.272 42.48-89.669 1.033-1.652 2.808-2.653 4.713-2.653 1.905 0 3.68 1 4.714 2.653 18.35 29.4 31.848 57.894 42.479 89.669.7 2.091.182 4.41-1.331 5.977-1.514 1.566-3.758 2.108-5.788 1.386-13.142-4.65-27-7.107-40.074-7.107-13.074 0-26.931 2.458-40.075 7.107a5.433 5.433 0 0 1-1.817.313" transform="translate(0 380)" id="Pattern_Mindset"/></g></g></g></svg>