<svg id="Layer_1" xmlns="http://www.w3.org/2000/svg" viewBox="-336.7 524.8 267.3 251.2"><g id="Page-1"><g id="_x30_1.-Exports-_x2F_-Symbols" transform="translate(-898 -1282)"><g id="Symbols-Background" transform="translate(50 1199)"><path id="Toxins_Solid" d="M525.8 663c-3.3.8-6.3 3-8.1 6.3l-6.5 12 84.8 45.5c12.8 6.9 17.6 22.9 10.8 35.7l-45.4 84.7 12 6.5c2.9 1.5 6 1.9 9 1.1l47.7-14.4v-.1c2.5-1.1 4.7-3 6.1-5.6l25.5-47.6 47.6 25.5c3.6 1.9 7.6 1.9 11.1.4l17.6-5.3c1-.2 2-.5 3-.9l22.2-6.7c3.7-.6 7.1-2.9 9-6.5l6.5-12-84.7-45.4c-12.8-6.9-17.6-22.9-10.8-35.7l45.5-84.8-12-6.5c-3.1-1.7-6.6-1.9-9.7-.9l-45.7 13.8h-.1c-3.1.9-5.8 3-7.4 6.1l-25.5 47.6-47.6-25.5c-2.9-1.5-6.1-1.9-9-1.1L525.8 663z" fill="#85735d"/></g></g></g></svg>